<?xml version="1.0" standalone="no"?>
<!DOCTYPE svg PUBLIC "-//W3C//DTD SVG 1.1//EN" "http://www.w3.org/Graphics/SVG/1.1/DTD/svg11.dtd">
<svg version="1.1" width="1200" height="518" onload="init(evt)" viewBox="0 0 1200 518" xmlns="http://www.w3.org/2000/svg" xmlns:xlink="http://www.w3.org/1999/xlink">
<!-- Flame graph stack visualization. See https://github.com/brendangregg/FlameGraph for latest version, and http://www.brendangregg.com/flamegraphs.html for examples. -->
<!-- NOTES:  -->
<defs>
	<linearGradient id="background" y1="0" y2="1" x1="0" x2="0" >
		<stop stop-color="#eeeeee" offset="5%" />
		<stop stop-color="#eeeeb0" offset="95%" />
	</linearGradient>
</defs>
<style type="text/css">
	text { font-family:Verdana; font-size:12px; fill:rgb(0,0,0); }
	#search, #ignorecase { opacity:0.1; cursor:pointer; }
	#search:hover, #search.show, #ignorecase:hover, #ignorecase.show { opacity:1; }
	#subtitle { text-anchor:middle; font-color:rgb(160,160,160); }
	#title { text-anchor:middle; font-size:17px}
	#unzoom { cursor:pointer; }
	#frames > *:hover { stroke:black; stroke-width:0.5; cursor:pointer; }
	.hide { display:none; }
	.parent { opacity:0.5; }
</style>
<script type="text/ecmascript">
<![CDATA[
	"use strict";
	var details, searchbtn, unzoombtn, matchedtxt, svg, searching, currentSearchTerm, ignorecase, ignorecaseBtn;
	function init(evt) {
		details = document.getElementById("details").firstChild;
		searchbtn = document.getElementById("search");
		ignorecaseBtn = document.getElementById("ignorecase");
		unzoombtn = document.getElementById("unzoom");
		matchedtxt = document.getElementById("matched");
		svg = document.getElementsByTagName("svg")[0];
		searching = 0;
		currentSearchTerm = null;

		// use GET parameters to restore a flamegraphs state.
		var params = get_params();
		if (params.x && params.y)
			zoom(find_group(document.querySelector('[x="' + params.x + '"][y="' + params.y + '"]')));
                if (params.s) search(params.s);
	}

	// event listeners
	window.addEventListener("click", function(e) {
		var target = find_group(e.target);
		if (target) {
			if (target.nodeName == "a") {
				if (e.ctrlKey === false) return;
				e.preventDefault();
			}
			if (target.classList.contains("parent")) unzoom(true);
			zoom(target);
			if (!document.querySelector('.parent')) {
				// we have basically done a clearzoom so clear the url
				var params = get_params();
				if (params.x) delete params.x;
				if (params.y) delete params.y;
				history.replaceState(null, null, parse_params(params));
				unzoombtn.classList.add("hide");
				return;
			}

			// set parameters for zoom state
			var el = target.querySelector("rect");
			if (el && el.attributes && el.attributes.y && el.attributes._orig_x) {
				var params = get_params()
				params.x = el.attributes._orig_x.value;
				params.y = el.attributes.y.value;
				history.replaceState(null, null, parse_params(params));
			}
		}
		else if (e.target.id == "unzoom") clearzoom();
		else if (e.target.id == "search") search_prompt();
		else if (e.target.id == "ignorecase") toggle_ignorecase();
	}, false)

	// mouse-over for info
	// show
	window.addEventListener("mouseover", function(e) {
		var target = find_group(e.target);
		if (target) details.nodeValue = "Function: " + g_to_text(target);
	}, false)

	// clear
	window.addEventListener("mouseout", function(e) {
		var target = find_group(e.target);
		if (target) details.nodeValue = ' ';
	}, false)

	// ctrl-F for search
	// ctrl-I to toggle case-sensitive search
	window.addEventListener("keydown",function (e) {
		if (e.keyCode === 114 || (e.ctrlKey && e.keyCode === 70)) {
			e.preventDefault();
			search_prompt();
		}
		else if (e.ctrlKey && e.keyCode === 73) {
			e.preventDefault();
			toggle_ignorecase();
		}
	}, false)

	// functions
	function get_params() {
		var params = {};
		var paramsarr = window.location.search.substr(1).split('&');
		for (var i = 0; i < paramsarr.length; ++i) {
			var tmp = paramsarr[i].split("=");
			if (!tmp[0] || !tmp[1]) continue;
			params[tmp[0]]  = decodeURIComponent(tmp[1]);
		}
		return params;
	}
	function parse_params(params) {
		var uri = "?";
		for (var key in params) {
			uri += key + '=' + encodeURIComponent(params[key]) + '&';
		}
		if (uri.slice(-1) == "&")
			uri = uri.substring(0, uri.length - 1);
		if (uri == '?')
			uri = window.location.href.split('?')[0];
		return uri;
	}
	function find_child(node, selector) {
		var children = node.querySelectorAll(selector);
		if (children.length) return children[0];
	}
	function find_group(node) {
		var parent = node.parentElement;
		if (!parent) return;
		if (parent.id == "frames") return node;
		return find_group(parent);
	}
	function orig_save(e, attr, val) {
		if (e.attributes["_orig_" + attr] != undefined) return;
		if (e.attributes[attr] == undefined) return;
		if (val == undefined) val = e.attributes[attr].value;
		e.setAttribute("_orig_" + attr, val);
	}
	function orig_load(e, attr) {
		if (e.attributes["_orig_"+attr] == undefined) return;
		e.attributes[attr].value = e.attributes["_orig_" + attr].value;
		e.removeAttribute("_orig_"+attr);
	}
	function g_to_text(e) {
		var text = find_child(e, "title").firstChild.nodeValue;
		return (text)
	}
	function g_to_func(e) {
		var func = g_to_text(e);
		// if there's any manipulation we want to do to the function
		// name before it's searched, do it here before returning.
		return (func);
	}
	function update_text(e) {
		var r = find_child(e, "rect");
		var t = find_child(e, "text");
		var w = parseFloat(r.attributes.width.value) -3;
		var txt = find_child(e, "title").textContent.replace(/\([^(]*\)$/,"");
		t.attributes.x.value = parseFloat(r.attributes.x.value) + 3;

		// Smaller than this size won't fit anything
		if (w < 2 * 12 * 0.59) {
			t.textContent = "";
			return;
		}

		t.textContent = txt;
		var sl = t.getSubStringLength(0, txt.length);
		// check if only whitespace or if we can fit the entire string into width w
		if (/^ *$/.test(txt) || sl < w)
			return;

		// this isn't perfect, but gives a good starting point
		// and avoids calling getSubStringLength too often
		var start = Math.floor((w/sl) * txt.length);
		for (var x = start; x > 0; x = x-2) {
			if (t.getSubStringLength(0, x + 2) <= w) {
				t.textContent = txt.substring(0, x) + "..";
				return;
			}
		}
		t.textContent = "";
	}

	// zoom
	function zoom_reset(e) {
		if (e.attributes != undefined) {
			orig_load(e, "x");
			orig_load(e, "width");
		}
		if (e.childNodes == undefined) return;
		for (var i = 0, c = e.childNodes; i < c.length; i++) {
			zoom_reset(c[i]);
		}
	}
	function zoom_child(e, x, ratio) {
		if (e.attributes != undefined) {
			if (e.attributes.x != undefined) {
				orig_save(e, "x");
				e.attributes.x.value = (parseFloat(e.attributes.x.value) - x - 10) * ratio + 10;
				if (e.tagName == "text")
					e.attributes.x.value = find_child(e.parentNode, "rect[x]").attributes.x.value + 3;
			}
			if (e.attributes.width != undefined) {
				orig_save(e, "width");
				e.attributes.width.value = parseFloat(e.attributes.width.value) * ratio;
			}
		}

		if (e.childNodes == undefined) return;
		for (var i = 0, c = e.childNodes; i < c.length; i++) {
			zoom_child(c[i], x - 10, ratio);
		}
	}
	function zoom_parent(e) {
		if (e.attributes) {
			if (e.attributes.x != undefined) {
				orig_save(e, "x");
				e.attributes.x.value = 10;
			}
			if (e.attributes.width != undefined) {
				orig_save(e, "width");
				e.attributes.width.value = parseInt(svg.width.baseVal.value) - (10 * 2);
			}
		}
		if (e.childNodes == undefined) return;
		for (var i = 0, c = e.childNodes; i < c.length; i++) {
			zoom_parent(c[i]);
		}
	}
	function zoom(node) {
		var attr = find_child(node, "rect").attributes;
		var width = parseFloat(attr.width.value);
		var xmin = parseFloat(attr.x.value);
		var xmax = parseFloat(xmin + width);
		var ymin = parseFloat(attr.y.value);
		var ratio = (svg.width.baseVal.value - 2 * 10) / width;

		// XXX: Workaround for JavaScript float issues (fix me)
		var fudge = 0.0001;

		unzoombtn.classList.remove("hide");

		var el = document.getElementById("frames").children;
		for (var i = 0; i < el.length; i++) {
			var e = el[i];
			var a = find_child(e, "rect").attributes;
			var ex = parseFloat(a.x.value);
			var ew = parseFloat(a.width.value);
			var upstack;
			// Is it an ancestor
			if (0 == 0) {
				upstack = parseFloat(a.y.value) > ymin;
			} else {
				upstack = parseFloat(a.y.value) < ymin;
			}
			if (upstack) {
				// Direct ancestor
				if (ex <= xmin && (ex+ew+fudge) >= xmax) {
					e.classList.add("parent");
					zoom_parent(e);
					update_text(e);
				}
				// not in current path
				else
					e.classList.add("hide");
			}
			// Children maybe
			else {
				// no common path
				if (ex < xmin || ex + fudge >= xmax) {
					e.classList.add("hide");
				}
				else {
					zoom_child(e, xmin, ratio);
					update_text(e);
				}
			}
		}
		search();
	}
	function unzoom(dont_update_text) {
		unzoombtn.classList.add("hide");
		var el = document.getElementById("frames").children;
		for(var i = 0; i < el.length; i++) {
			el[i].classList.remove("parent");
			el[i].classList.remove("hide");
			zoom_reset(el[i]);
			if(!dont_update_text) update_text(el[i]);
		}
		search();
	}
	function clearzoom() {
		unzoom();

		// remove zoom state
		var params = get_params();
		if (params.x) delete params.x;
		if (params.y) delete params.y;
		history.replaceState(null, null, parse_params(params));
	}

	// search
	function toggle_ignorecase() {
		ignorecase = !ignorecase;
		if (ignorecase) {
			ignorecaseBtn.classList.add("show");
		} else {
			ignorecaseBtn.classList.remove("show");
		}
		reset_search();
		search();
	}
	function reset_search() {
		var el = document.querySelectorAll("#frames rect");
		for (var i = 0; i < el.length; i++) {
			orig_load(el[i], "fill")
		}
		var params = get_params();
		delete params.s;
		history.replaceState(null, null, parse_params(params));
	}
	function search_prompt() {
		if (!searching) {
			var term = prompt("Enter a search term (regexp " +
			    "allowed, eg: ^ext4_)"
			    + (ignorecase ? ", ignoring case" : "")
			    + "\nPress Ctrl-i to toggle case sensitivity", "");
			if (term != null) search(term);
		} else {
			reset_search();
			searching = 0;
			currentSearchTerm = null;
			searchbtn.classList.remove("show");
			searchbtn.firstChild.nodeValue = "Search"
			matchedtxt.classList.add("hide");
			matchedtxt.firstChild.nodeValue = ""
		}
	}
	function search(term) {
		if (term) currentSearchTerm = term;

		var re = new RegExp(currentSearchTerm, ignorecase ? 'i' : '');
		var el = document.getElementById("frames").children;
		var matches = new Object();
		var maxwidth = 0;
		for (var i = 0; i < el.length; i++) {
			var e = el[i];
			var func = g_to_func(e);
			var rect = find_child(e, "rect");
			if (func == null || rect == null)
				continue;

			// Save max width. Only works as we have a root frame
			var w = parseFloat(rect.attributes.width.value);
			if (w > maxwidth)
				maxwidth = w;

			if (func.match(re)) {
				// highlight
				var x = parseFloat(rect.attributes.x.value);
				orig_save(rect, "fill");
				rect.attributes.fill.value = "rgb(230,0,230)";

				// remember matches
				if (matches[x] == undefined) {
					matches[x] = w;
				} else {
					if (w > matches[x]) {
						// overwrite with parent
						matches[x] = w;
					}
				}
				searching = 1;
			}
		}
		if (!searching)
			return;
		var params = get_params();
		params.s = currentSearchTerm;
		history.replaceState(null, null, parse_params(params));

		searchbtn.classList.add("show");
		searchbtn.firstChild.nodeValue = "Reset Search";

		// calculate percent matched, excluding vertical overlap
		var count = 0;
		var lastx = -1;
		var lastw = 0;
		var keys = Array();
		for (k in matches) {
			if (matches.hasOwnProperty(k))
				keys.push(k);
		}
		// sort the matched frames by their x location
		// ascending, then width descending
		keys.sort(function(a, b){
			return a - b;
		});
		// Step through frames saving only the biggest bottom-up frames
		// thanks to the sort order. This relies on the tree property
		// where children are always smaller than their parents.
		var fudge = 0.0001;	// JavaScript floating point
		for (var k in keys) {
			var x = parseFloat(keys[k]);
			var w = matches[keys[k]];
			if (x >= lastx + lastw - fudge) {
				count += w;
				lastx = x;
				lastw = w;
			}
		}
		// display matched percent
		matchedtxt.classList.remove("hide");
		var pct = 100 * count / maxwidth;
		if (pct != 100) pct = pct.toFixed(1)
		matchedtxt.firstChild.nodeValue = "Matched: " + pct + "%";
	}
]]>
</script>
<rect x="0.0" y="0" width="1200.0" height="518.0" fill="url(#background)"  />
<text id="title" x="600.00" y="24" >bc_model</text>
<text id="details" x="10.00" y="501" > </text>
<text id="unzoom" x="10.00" y="24" class="hide">Reset Zoom</text>
<text id="search" x="1090.00" y="24" >Search</text>
<text id="ignorecase" x="1174.00" y="24" >ic</text>
<text id="matched" x="1090.00" y="501" > </text>
<g id="frames">
<g >
<title>[unknown] (621,993 samples, 7.98%)</title><rect x="331.3" y="133" width="94.1" height="15.0" fill="rgb(205,58,58)" rx="2" ry="2" />
<text  x="334.33" y="143.5" >[unknown]</text>
</g>
<g >
<title>[unknown] (236,781 samples, 3.04%)</title><rect x="28.9" y="117" width="35.8" height="15.0" fill="rgb(205,58,58)" rx="2" ry="2" />
<text  x="31.91" y="127.5" >[un..</text>
</g>
<g >
<title>bc_model (7,798,458 samples, 100.00%)</title><rect x="10.0" y="453" width="1180.0" height="15.0" fill="rgb(205,57,57)" rx="2" ry="2" />
<text  x="13.00" y="463.5" >bc_model</text>
</g>
<g >
<title>[unknown] (361,780 samples, 4.64%)</title><rect x="10.0" y="213" width="54.7" height="15.0" fill="rgb(205,58,58)" rx="2" ry="2" />
<text  x="13.00" y="223.5" >[unkn..</text>
</g>
<g >
<title>__pthread_tunables_init (685,691 samples, 8.79%)</title><rect x="94.2" y="373" width="103.7" height="15.0" fill="rgb(213,70,70)" rx="2" ry="2" />
<text  x="97.17" y="383.5" >__pthread_tu..</text>
</g>
<g >
<title>[libgfortran.so.5.0.0] (1,163,710 samples, 14.92%)</title><rect x="504.6" y="309" width="176.0" height="15.0" fill="rgb(254,128,128)" rx="2" ry="2" />
<text  x="507.56" y="319.5" >[libgfortran.so.5.0.0]</text>
</g>
<g >
<title>[unknown] (194,480 samples, 2.49%)</title><rect x="64.7" y="405" width="29.5" height="15.0" fill="rgb(205,58,58)" rx="2" ry="2" />
<text  x="67.74" y="415.5" >[u..</text>
</g>
<g >
<title>[unknown] (519,163 samples, 6.66%)</title><rect x="252.8" y="53" width="78.5" height="15.0" fill="rgb(205,58,58)" rx="2" ry="2" />
<text  x="255.77" y="63.5" >[unknown]</text>
</g>
<g >
<title>[unknown] (519,163 samples, 6.66%)</title><rect x="252.8" y="277" width="78.5" height="15.0" fill="rgb(205,58,58)" rx="2" ry="2" />
<text  x="255.77" y="287.5" >[unknown]</text>
</g>
<g >
<title>[unknown] (685,691 samples, 8.79%)</title><rect x="94.2" y="245" width="103.7" height="15.0" fill="rgb(205,58,58)" rx="2" ry="2" />
<text  x="97.17" y="255.5" >[unknown]</text>
</g>
<g >
<title>[unknown] (361,780 samples, 4.64%)</title><rect x="10.0" y="341" width="54.7" height="15.0" fill="rgb(205,58,58)" rx="2" ry="2" />
<text  x="13.00" y="351.5" >[unkn..</text>
</g>
<g >
<title>[unknown] (621,993 samples, 7.98%)</title><rect x="331.3" y="245" width="94.1" height="15.0" fill="rgb(205,58,58)" rx="2" ry="2" />
<text  x="334.33" y="255.5" >[unknown]</text>
</g>
<g >
<title>[unknown] (361,780 samples, 4.64%)</title><rect x="10.0" y="245" width="54.7" height="15.0" fill="rgb(205,58,58)" rx="2" ry="2" />
<text  x="13.00" y="255.5" >[unkn..</text>
</g>
<g >
<title>[unknown] (194,480 samples, 2.49%)</title><rect x="64.7" y="309" width="29.5" height="15.0" fill="rgb(205,58,58)" rx="2" ry="2" />
<text  x="67.74" y="319.5" >[u..</text>
</g>
<g >
<title>_dl_load_cache_lookup (362,508 samples, 4.65%)</title><rect x="197.9" y="309" width="54.9" height="15.0" fill="rgb(244,114,114)" rx="2" ry="2" />
<text  x="200.92" y="319.5" >_dl_l..</text>
</g>
<g >
<title>[unknown] (752,055 samples, 9.64%)</title><rect x="965.6" y="229" width="113.7" height="15.0" fill="rgb(205,58,58)" rx="2" ry="2" />
<text  x="968.55" y="239.5" >[unknown]</text>
</g>
<g >
<title>[unknown] (621,993 samples, 7.98%)</title><rect x="331.3" y="213" width="94.1" height="15.0" fill="rgb(205,58,58)" rx="2" ry="2" />
<text  x="334.33" y="223.5" >[unknown]</text>
</g>
<g >
<title>[unknown] (685,691 samples, 8.79%)</title><rect x="94.2" y="213" width="103.7" height="15.0" fill="rgb(205,58,58)" rx="2" ry="2" />
<text  x="97.17" y="223.5" >[unknown]</text>
</g>
<g >
<title>[unknown] (236,781 samples, 3.04%)</title><rect x="28.9" y="133" width="35.8" height="15.0" fill="rgb(205,58,58)" rx="2" ry="2" />
<text  x="31.91" y="143.5" >[un..</text>
</g>
<g >
<title>[unknown] (752,055 samples, 9.64%)</title><rect x="965.6" y="181" width="113.7" height="15.0" fill="rgb(205,58,58)" rx="2" ry="2" />
<text  x="968.55" y="191.5" >[unknown]</text>
</g>
<g >
<title>[unknown] (519,163 samples, 6.66%)</title><rect x="252.8" y="85" width="78.5" height="15.0" fill="rgb(205,58,58)" rx="2" ry="2" />
<text  x="255.77" y="95.5" >[unknown]</text>
</g>
<g >
<title>_dl_map_object_from_fd (519,163 samples, 6.66%)</title><rect x="252.8" y="309" width="78.5" height="15.0" fill="rgb(249,121,121)" rx="2" ry="2" />
<text  x="255.77" y="319.5" >_dl_map_o..</text>
</g>
<g >
<title>[unknown] (621,993 samples, 7.98%)</title><rect x="331.3" y="117" width="94.1" height="15.0" fill="rgb(205,58,58)" rx="2" ry="2" />
<text  x="334.33" y="127.5" >[unknown]</text>
</g>
<g >
<title>[unknown] (752,055 samples, 9.64%)</title><rect x="965.6" y="165" width="113.7" height="15.0" fill="rgb(205,58,58)" rx="2" ry="2" />
<text  x="968.55" y="175.5" >[unknown]</text>
</g>
<g >
<title>[unknown] (361,780 samples, 4.64%)</title><rect x="10.0" y="197" width="54.7" height="15.0" fill="rgb(205,58,58)" rx="2" ry="2" />
<text  x="13.00" y="207.5" >[unkn..</text>
</g>
<g >
<title>[unknown] (519,163 samples, 6.66%)</title><rect x="252.8" y="37" width="78.5" height="15.0" fill="rgb(205,58,58)" rx="2" ry="2" />
<text  x="255.77" y="47.5" >[unknown]</text>
</g>
<g >
<title>[unknown] (236,781 samples, 3.04%)</title><rect x="28.9" y="149" width="35.8" height="15.0" fill="rgb(205,58,58)" rx="2" ry="2" />
<text  x="31.91" y="159.5" >[un..</text>
</g>
<g >
<title>[unknown] (194,480 samples, 2.49%)</title><rect x="64.7" y="373" width="29.5" height="15.0" fill="rgb(205,58,58)" rx="2" ry="2" />
<text  x="67.74" y="383.5" >[u..</text>
</g>
<g >
<title>[unknown] (194,480 samples, 2.49%)</title><rect x="64.7" y="389" width="29.5" height="15.0" fill="rgb(205,58,58)" rx="2" ry="2" />
<text  x="67.74" y="399.5" >[u..</text>
</g>
<g >
<title>mmap64 (519,163 samples, 6.66%)</title><rect x="252.8" y="293" width="78.5" height="15.0" fill="rgb(216,74,74)" rx="2" ry="2" />
<text  x="255.77" y="303.5" >mmap64</text>
</g>
<g >
<title>_dl_lookup_symbol_x (685,253 samples, 8.79%)</title><rect x="768.6" y="293" width="103.7" height="15.0" fill="rgb(206,59,59)" rx="2" ry="2" />
<text  x="771.59" y="303.5" >_dl_lookup_s..</text>
</g>
<g >
<title>[unknown] (621,993 samples, 7.98%)</title><rect x="331.3" y="149" width="94.1" height="15.0" fill="rgb(205,58,58)" rx="2" ry="2" />
<text  x="334.33" y="159.5" >[unknown]</text>
</g>
<g >
<title>_dl_start (2,383,835 samples, 30.57%)</title><rect x="64.7" y="421" width="360.7" height="15.0" fill="rgb(236,102,102)" rx="2" ry="2" />
<text  x="67.74" y="431.5" >_dl_start</text>
</g>
<g >
<title>mmap64 (621,993 samples, 7.98%)</title><rect x="331.3" y="293" width="94.1" height="15.0" fill="rgb(216,74,74)" rx="2" ry="2" />
<text  x="334.33" y="303.5" >mmap64</text>
</g>
<g >
<title>[unknown] (621,993 samples, 7.98%)</title><rect x="331.3" y="197" width="94.1" height="15.0" fill="rgb(205,58,58)" rx="2" ry="2" />
<text  x="334.33" y="207.5" >[unknown]</text>
</g>
<g >
<title>__GI___libc_write (581,220 samples, 7.45%)</title><rect x="680.6" y="325" width="88.0" height="15.0" fill="rgb(213,69,69)" rx="2" ry="2" />
<text  x="683.65" y="335.5" >__GI___lib..</text>
</g>
<g >
<title>do_lookup_x (685,253 samples, 8.79%)</title><rect x="768.6" y="277" width="103.7" height="15.0" fill="rgb(244,115,115)" rx="2" ry="2" />
<text  x="771.59" y="287.5" >do_lookup_x</text>
</g>
<g >
<title>version_check_doit (621,993 samples, 7.98%)</title><rect x="331.3" y="357" width="94.1" height="15.0" fill="rgb(250,123,123)" rx="2" ry="2" />
<text  x="334.33" y="367.5" >version_che..</text>
</g>
<g >
<title>[unknown] (685,691 samples, 8.79%)</title><rect x="94.2" y="325" width="103.7" height="15.0" fill="rgb(205,58,58)" rx="2" ry="2" />
<text  x="97.17" y="335.5" >[unknown]</text>
</g>
<g >
<title>_dl_check_map_versions (621,993 samples, 7.98%)</title><rect x="331.3" y="325" width="94.1" height="15.0" fill="rgb(220,79,79)" rx="2" ry="2" />
<text  x="334.33" y="335.5" >_dl_check_m..</text>
</g>
<g >
<title>_dl_receive_error (621,993 samples, 7.98%)</title><rect x="331.3" y="373" width="94.1" height="15.0" fill="rgb(223,83,83)" rx="2" ry="2" />
<text  x="334.33" y="383.5" >_dl_receive..</text>
</g>
<g >
<title>[unknown] (621,993 samples, 7.98%)</title><rect x="331.3" y="165" width="94.1" height="15.0" fill="rgb(205,58,58)" rx="2" ry="2" />
<text  x="334.33" y="175.5" >[unknown]</text>
</g>
<g >
<title>_dl_sysdep_start (2,189,355 samples, 28.07%)</title><rect x="94.2" y="405" width="331.2" height="15.0" fill="rgb(232,97,97)" rx="2" ry="2" />
<text  x="97.17" y="415.5" >_dl_sysdep_start</text>
</g>
<g >
<title>__dde_solver_m_MOD_dde_drv2 (752,055 samples, 9.64%)</title><rect x="965.6" y="325" width="113.7" height="15.0" fill="rgb(250,124,124)" rx="2" ry="2" />
<text  x="968.55" y="335.5" >__dde_solver_m..</text>
</g>
<g >
<title>[unknown] (685,691 samples, 8.79%)</title><rect x="94.2" y="261" width="103.7" height="15.0" fill="rgb(205,58,58)" rx="2" ry="2" />
<text  x="97.17" y="271.5" >[unknown]</text>
</g>
<g >
<title>[unknown] (621,993 samples, 7.98%)</title><rect x="331.3" y="261" width="94.1" height="15.0" fill="rgb(205,58,58)" rx="2" ry="2" />
<text  x="334.33" y="271.5" >[unknown]</text>
</g>
<g >
<title>[unknown] (581,220 samples, 7.45%)</title><rect x="680.6" y="309" width="88.0" height="15.0" fill="rgb(205,58,58)" rx="2" ry="2" />
<text  x="683.65" y="319.5" >[unknown]</text>
</g>
<g >
<title>_dl_check_all_versions (621,993 samples, 7.98%)</title><rect x="331.3" y="341" width="94.1" height="15.0" fill="rgb(200,51,51)" rx="2" ry="2" />
<text  x="334.33" y="351.5" >_dl_check_a..</text>
</g>
<g >
<title>[unknown] (752,055 samples, 9.64%)</title><rect x="965.6" y="149" width="113.7" height="15.0" fill="rgb(205,58,58)" rx="2" ry="2" />
<text  x="968.55" y="159.5" >[unknown]</text>
</g>
<g >
<title>[unknown] (194,480 samples, 2.49%)</title><rect x="64.7" y="357" width="29.5" height="15.0" fill="rgb(205,58,58)" rx="2" ry="2" />
<text  x="67.74" y="367.5" >[u..</text>
</g>
<g >
<title>[unknown] (361,780 samples, 4.64%)</title><rect x="10.0" y="261" width="54.7" height="15.0" fill="rgb(205,58,58)" rx="2" ry="2" />
<text  x="13.00" y="271.5" >[unkn..</text>
</g>
<g >
<title>__printf_fp_l_buffer (616,423 samples, 7.90%)</title><rect x="587.4" y="245" width="93.2" height="15.0" fill="rgb(208,61,61)" rx="2" ry="2" />
<text  x="590.38" y="255.5" >__printf_fp..</text>
</g>
<g >
<title>_dl_map_object (881,671 samples, 11.31%)</title><rect x="197.9" y="325" width="133.4" height="15.0" fill="rgb(247,119,119)" rx="2" ry="2" />
<text  x="200.92" y="335.5" >_dl_map_object</text>
</g>
<g >
<title>[unknown] (519,163 samples, 6.66%)</title><rect x="252.8" y="101" width="78.5" height="15.0" fill="rgb(205,58,58)" rx="2" ry="2" />
<text  x="255.77" y="111.5" >[unknown]</text>
</g>
<g >
<title>[unknown] (361,780 samples, 4.64%)</title><rect x="10.0" y="165" width="54.7" height="15.0" fill="rgb(205,58,58)" rx="2" ry="2" />
<text  x="13.00" y="175.5" >[unkn..</text>
</g>
<g >
<title>[unknown] (752,055 samples, 9.64%)</title><rect x="965.6" y="197" width="113.7" height="15.0" fill="rgb(205,58,58)" rx="2" ry="2" />
<text  x="968.55" y="207.5" >[unknown]</text>
</g>
<g >
<title>__vsnprintf_internal (616,423 samples, 7.90%)</title><rect x="587.4" y="277" width="93.2" height="15.0" fill="rgb(235,102,102)" rx="2" ry="2" />
<text  x="590.38" y="287.5" >__vsnprintf..</text>
</g>
<g >
<title>__libc_start_call_main (5,052,843 samples, 64.79%)</title><rect x="425.4" y="405" width="764.6" height="15.0" fill="rgb(206,59,59)" rx="2" ry="2" />
<text  x="428.44" y="415.5" >__libc_start_call_main</text>
</g>
<g >
<title>[unknown] (361,780 samples, 4.64%)</title><rect x="10.0" y="229" width="54.7" height="15.0" fill="rgb(205,58,58)" rx="2" ry="2" />
<text  x="13.00" y="239.5" >[unkn..</text>
</g>
<g >
<title>[unknown] (361,780 samples, 4.64%)</title><rect x="10.0" y="181" width="54.7" height="15.0" fill="rgb(205,58,58)" rx="2" ry="2" />
<text  x="13.00" y="191.5" >[unkn..</text>
</g>
<g >
<title>pthread_mutex_trylock@@GLIBC_2.34 (616,423 samples, 7.90%)</title><rect x="872.3" y="325" width="93.3" height="15.0" fill="rgb(220,80,80)" rx="2" ry="2" />
<text  x="875.28" y="335.5" >pthread_mut..</text>
</g>
<g >
<title>[unknown] (752,055 samples, 9.64%)</title><rect x="965.6" y="133" width="113.7" height="15.0" fill="rgb(205,58,58)" rx="2" ry="2" />
<text  x="968.55" y="143.5" >[unknown]</text>
</g>
<g >
<title>[unknown] (581,220 samples, 7.45%)</title><rect x="680.6" y="277" width="88.0" height="15.0" fill="rgb(205,58,58)" rx="2" ry="2" />
<text  x="683.65" y="287.5" >[unknown]</text>
</g>
<g >
<title>_dl_start_user (2,383,835 samples, 30.57%)</title><rect x="64.7" y="437" width="360.7" height="15.0" fill="rgb(234,100,100)" rx="2" ry="2" />
<text  x="67.74" y="447.5" >_dl_start_user</text>
</g>
<g >
<title>[unknown] (752,055 samples, 9.64%)</title><rect x="965.6" y="245" width="113.7" height="15.0" fill="rgb(205,58,58)" rx="2" ry="2" />
<text  x="968.55" y="255.5" >[unknown]</text>
</g>
<g >
<title>__dde_solver_m_MOD_dde_zset (752,055 samples, 9.64%)</title><rect x="965.6" y="277" width="113.7" height="15.0" fill="rgb(234,99,99)" rx="2" ry="2" />
<text  x="968.55" y="287.5" >__dde_solver_m..</text>
</g>
<g >
<title>[unknown] (685,691 samples, 8.79%)</title><rect x="94.2" y="357" width="103.7" height="15.0" fill="rgb(205,58,58)" rx="2" ry="2" />
<text  x="97.17" y="367.5" >[unknown]</text>
</g>
<g >
<title>malloc (731,289 samples, 9.38%)</title><rect x="1079.3" y="341" width="110.7" height="15.0" fill="rgb(228,91,91)" rx="2" ry="2" />
<text  x="1082.35" y="351.5" >malloc</text>
</g>
<g >
<title>[unknown] (519,163 samples, 6.66%)</title><rect x="252.8" y="69" width="78.5" height="15.0" fill="rgb(205,58,58)" rx="2" ry="2" />
<text  x="255.77" y="79.5" >[unknown]</text>
</g>
<g >
<title>__dde_solver_m_MOD_dde_drv1 (752,055 samples, 9.64%)</title><rect x="965.6" y="341" width="113.7" height="15.0" fill="rgb(203,54,54)" rx="2" ry="2" />
<text  x="968.55" y="351.5" >__dde_solver_m..</text>
</g>
<g >
<title>[unknown] (752,055 samples, 9.64%)</title><rect x="965.6" y="117" width="113.7" height="15.0" fill="rgb(205,58,58)" rx="2" ry="2" />
<text  x="968.55" y="127.5" >[unknown]</text>
</g>
<g >
<title>[unknown] (581,220 samples, 7.45%)</title><rect x="680.6" y="293" width="88.0" height="15.0" fill="rgb(205,58,58)" rx="2" ry="2" />
<text  x="683.65" y="303.5" >[unknown]</text>
</g>
<g >
<title>[unknown] (621,993 samples, 7.98%)</title><rect x="331.3" y="181" width="94.1" height="15.0" fill="rgb(205,58,58)" rx="2" ry="2" />
<text  x="334.33" y="191.5" >[unknown]</text>
</g>
<g >
<title>[unknown] (194,480 samples, 2.49%)</title><rect x="64.7" y="325" width="29.5" height="15.0" fill="rgb(205,58,58)" rx="2" ry="2" />
<text  x="67.74" y="335.5" >[u..</text>
</g>
<g >
<title>_dl_fixup (685,253 samples, 8.79%)</title><rect x="768.6" y="309" width="103.7" height="15.0" fill="rgb(250,123,123)" rx="2" ry="2" />
<text  x="771.59" y="319.5" >_dl_fixup</text>
</g>
<g >
<title>__dde_solver_m_MOD_dkl_4 (1,483,344 samples, 19.02%)</title><rect x="965.6" y="357" width="224.4" height="15.0" fill="rgb(241,110,110)" rx="2" ry="2" />
<text  x="968.55" y="367.5" >__dde_solver_m_MOD_dkl_4</text>
</g>
<g >
<title>[unknown] (752,055 samples, 9.64%)</title><rect x="965.6" y="213" width="113.7" height="15.0" fill="rgb(205,58,58)" rx="2" ry="2" />
<text  x="968.55" y="223.5" >[unknown]</text>
</g>
<g >
<title>[unknown] (621,993 samples, 7.98%)</title><rect x="331.3" y="229" width="94.1" height="15.0" fill="rgb(205,58,58)" rx="2" ry="2" />
<text  x="334.33" y="239.5" >[unknown]</text>
</g>
<g >
<title>[unknown] (685,691 samples, 8.79%)</title><rect x="94.2" y="229" width="103.7" height="15.0" fill="rgb(205,58,58)" rx="2" ry="2" />
<text  x="97.17" y="239.5" >[unknown]</text>
</g>
<g >
<title>__GI___open64_nocancel (362,508 samples, 4.65%)</title><rect x="197.9" y="277" width="54.9" height="15.0" fill="rgb(215,72,72)" rx="2" ry="2" />
<text  x="200.92" y="287.5" >__GI_..</text>
</g>
<g >
<title>__dde_solver_m_MOD_dde_zset2 (752,055 samples, 9.64%)</title><rect x="965.6" y="261" width="113.7" height="15.0" fill="rgb(209,63,63)" rx="2" ry="2" />
<text  x="968.55" y="271.5" >__dde_solver_m..</text>
</g>
<g >
<title>[unknown] (519,163 samples, 6.66%)</title><rect x="252.8" y="165" width="78.5" height="15.0" fill="rgb(205,58,58)" rx="2" ry="2" />
<text  x="255.77" y="175.5" >[unknown]</text>
</g>
<g >
<title>[unknown] (124,999 samples, 1.60%)</title><rect x="45.8" y="101" width="18.9" height="15.0" fill="rgb(205,58,58)" rx="2" ry="2" />
<text  x="48.83" y="111.5" ></text>
</g>
<g >
<title>__printf_buffer (616,423 samples, 7.90%)</title><rect x="587.4" y="261" width="93.2" height="15.0" fill="rgb(216,73,73)" rx="2" ry="2" />
<text  x="590.38" y="271.5" >__printf_bu..</text>
</g>
<g >
<title>_dl_catch_exception (881,671 samples, 11.31%)</title><rect x="197.9" y="357" width="133.4" height="15.0" fill="rgb(253,127,127)" rx="2" ry="2" />
<text  x="200.92" y="367.5" >_dl_catch_except..</text>
</g>
<g >
<title>__printf_fp_buffer_1.isra.0 (616,423 samples, 7.90%)</title><rect x="587.4" y="229" width="93.2" height="15.0" fill="rgb(254,129,129)" rx="2" ry="2" />
<text  x="590.38" y="239.5" >__printf_fp..</text>
</g>
<g >
<title>[unknown] (519,163 samples, 6.66%)</title><rect x="252.8" y="261" width="78.5" height="15.0" fill="rgb(205,58,58)" rx="2" ry="2" />
<text  x="255.77" y="271.5" >[unknown]</text>
</g>
<g >
<title>[unknown] (362,508 samples, 4.65%)</title><rect x="197.9" y="261" width="54.9" height="15.0" fill="rgb(205,58,58)" rx="2" ry="2" />
<text  x="200.92" y="271.5" >[unkn..</text>
</g>
<g >
<title>[unknown] (581,220 samples, 7.45%)</title><rect x="680.6" y="197" width="88.0" height="15.0" fill="rgb(205,58,58)" rx="2" ry="2" />
<text  x="683.65" y="207.5" >[unknown]</text>
</g>
<g >
<title>MAIN__ (5,052,843 samples, 64.79%)</title><rect x="425.4" y="373" width="764.6" height="15.0" fill="rgb(242,111,111)" rx="2" ry="2" />
<text  x="428.44" y="383.5" >MAIN__</text>
</g>
<g >
<title>[unknown] (581,220 samples, 7.45%)</title><rect x="680.6" y="149" width="88.0" height="15.0" fill="rgb(205,58,58)" rx="2" ry="2" />
<text  x="683.65" y="159.5" >[unknown]</text>
</g>
<g >
<title>[unknown] (361,780 samples, 4.64%)</title><rect x="10.0" y="357" width="54.7" height="15.0" fill="rgb(205,58,58)" rx="2" ry="2" />
<text  x="13.00" y="367.5" >[unkn..</text>
</g>
<g >
<title>__libc_start_main@@GLIBC_2.34 (5,052,843 samples, 64.79%)</title><rect x="425.4" y="421" width="764.6" height="15.0" fill="rgb(227,89,89)" rx="2" ry="2" />
<text  x="428.44" y="431.5" >__libc_start_main@@GLIBC_2.34</text>
</g>
<g >
<title>__dde_solver_m_MOD_dde_drv3 (752,055 samples, 9.64%)</title><rect x="965.6" y="309" width="113.7" height="15.0" fill="rgb(243,113,113)" rx="2" ry="2" />
<text  x="968.55" y="319.5" >__dde_solver_m..</text>
</g>
<g >
<title>[unknown] (621,993 samples, 7.98%)</title><rect x="331.3" y="101" width="94.1" height="15.0" fill="rgb(205,58,58)" rx="2" ry="2" />
<text  x="334.33" y="111.5" >[unknown]</text>
</g>
<g >
<title>all (7,798,458 samples, 100%)</title><rect x="10.0" y="469" width="1180.0" height="15.0" fill="rgb(209,63,63)" rx="2" ry="2" />
<text  x="13.00" y="479.5" ></text>
</g>
<g >
<title>[unknown] (362,508 samples, 4.65%)</title><rect x="197.9" y="165" width="54.9" height="15.0" fill="rgb(205,58,58)" rx="2" ry="2" />
<text  x="200.92" y="175.5" >[unkn..</text>
</g>
<g >
<title>[unknown] (362,508 samples, 4.65%)</title><rect x="197.9" y="181" width="54.9" height="15.0" fill="rgb(205,58,58)" rx="2" ry="2" />
<text  x="200.92" y="191.5" >[unkn..</text>
</g>
<g >
<title>[unknown] (581,220 samples, 7.45%)</title><rect x="680.6" y="245" width="88.0" height="15.0" fill="rgb(205,58,58)" rx="2" ry="2" />
<text  x="683.65" y="255.5" >[unknown]</text>
</g>
<g >
<title>[libgfortran.so.5.0.0] (1,163,710 samples, 14.92%)</title><rect x="504.6" y="325" width="176.0" height="15.0" fill="rgb(254,128,128)" rx="2" ry="2" />
<text  x="507.56" y="335.5" >[libgfortran.so.5.0.0]</text>
</g>
<g >
<title>[unknown] (362,508 samples, 4.65%)</title><rect x="197.9" y="229" width="54.9" height="15.0" fill="rgb(205,58,58)" rx="2" ry="2" />
<text  x="200.92" y="239.5" >[unkn..</text>
</g>
<g >
<title>[unknown] (621,993 samples, 7.98%)</title><rect x="331.3" y="69" width="94.1" height="15.0" fill="rgb(205,58,58)" rx="2" ry="2" />
<text  x="334.33" y="79.5" >[unknown]</text>
</g>
<g >
<title>_dl_map_object_deps (881,671 samples, 11.31%)</title><rect x="197.9" y="373" width="133.4" height="15.0" fill="rgb(216,73,73)" rx="2" ry="2" />
<text  x="200.92" y="383.5" >_dl_map_object_d..</text>
</g>
<g >
<title>[unknown] (581,220 samples, 7.45%)</title><rect x="680.6" y="133" width="88.0" height="15.0" fill="rgb(205,58,58)" rx="2" ry="2" />
<text  x="683.65" y="143.5" >[unknown]</text>
</g>
<g >
<title>__minimal_malloc (621,993 samples, 7.98%)</title><rect x="331.3" y="309" width="94.1" height="15.0" fill="rgb(238,106,106)" rx="2" ry="2" />
<text  x="334.33" y="319.5" >__minimal_m..</text>
</g>
<g >
<title>dl_main (2,189,355 samples, 28.07%)</title><rect x="94.2" y="389" width="331.2" height="15.0" fill="rgb(234,100,100)" rx="2" ry="2" />
<text  x="97.17" y="399.5" >dl_main</text>
</g>
<g >
<title>[unknown] (581,220 samples, 7.45%)</title><rect x="680.6" y="117" width="88.0" height="15.0" fill="rgb(205,58,58)" rx="2" ry="2" />
<text  x="683.65" y="127.5" >[unknown]</text>
</g>
<g >
<title>[unknown] (361,780 samples, 4.64%)</title><rect x="10.0" y="325" width="54.7" height="15.0" fill="rgb(205,58,58)" rx="2" ry="2" />
<text  x="13.00" y="335.5" >[unkn..</text>
</g>
<g >
<title>[unknown] (581,220 samples, 7.45%)</title><rect x="680.6" y="213" width="88.0" height="15.0" fill="rgb(205,58,58)" rx="2" ry="2" />
<text  x="683.65" y="223.5" >[unknown]</text>
</g>
<g >
<title>[unknown] (124,999 samples, 1.60%)</title><rect x="45.8" y="69" width="18.9" height="15.0" fill="rgb(205,58,58)" rx="2" ry="2" />
<text  x="48.83" y="79.5" ></text>
</g>
<g >
<title>[unknown] (519,163 samples, 6.66%)</title><rect x="252.8" y="229" width="78.5" height="15.0" fill="rgb(205,58,58)" rx="2" ry="2" />
<text  x="255.77" y="239.5" >[unknown]</text>
</g>
<g >
<title>[unknown] (752,055 samples, 9.64%)</title><rect x="965.6" y="85" width="113.7" height="15.0" fill="rgb(205,58,58)" rx="2" ry="2" />
<text  x="968.55" y="95.5" >[unknown]</text>
</g>
<g >
<title>_dl_sysdep_read_whole_file (362,508 samples, 4.65%)</title><rect x="197.9" y="293" width="54.9" height="15.0" fill="rgb(200,50,50)" rx="2" ry="2" />
<text  x="200.92" y="303.5" >_dl_s..</text>
</g>
<g >
<title>[unknown] (519,163 samples, 6.66%)</title><rect x="252.8" y="181" width="78.5" height="15.0" fill="rgb(205,58,58)" rx="2" ry="2" />
<text  x="255.77" y="191.5" >[unknown]</text>
</g>
<g >
<title>[unknown] (361,780 samples, 4.64%)</title><rect x="10.0" y="421" width="54.7" height="15.0" fill="rgb(205,58,58)" rx="2" ry="2" />
<text  x="13.00" y="431.5" >[unkn..</text>
</g>
<g >
<title>[unknown] (362,508 samples, 4.65%)</title><rect x="197.9" y="213" width="54.9" height="15.0" fill="rgb(205,58,58)" rx="2" ry="2" />
<text  x="200.92" y="223.5" >[unkn..</text>
</g>
<g >
<title>[unknown] (194,480 samples, 2.49%)</title><rect x="64.7" y="341" width="29.5" height="15.0" fill="rgb(205,58,58)" rx="2" ry="2" />
<text  x="67.74" y="351.5" >[u..</text>
</g>
<g >
<title>[unknown] (519,163 samples, 6.66%)</title><rect x="252.8" y="133" width="78.5" height="15.0" fill="rgb(205,58,58)" rx="2" ry="2" />
<text  x="255.77" y="143.5" >[unknown]</text>
</g>
<g >
<title>[unknown] (124,999 samples, 1.60%)</title><rect x="45.8" y="85" width="18.9" height="15.0" fill="rgb(205,58,58)" rx="2" ry="2" />
<text  x="48.83" y="95.5" ></text>
</g>
<g >
<title>[unknown] (361,780 samples, 4.64%)</title><rect x="10.0" y="405" width="54.7" height="15.0" fill="rgb(205,58,58)" rx="2" ry="2" />
<text  x="13.00" y="415.5" >[unkn..</text>
</g>
<g >
<title>[unknown] (362,508 samples, 4.65%)</title><rect x="197.9" y="117" width="54.9" height="15.0" fill="rgb(205,58,58)" rx="2" ry="2" />
<text  x="200.92" y="127.5" >[unkn..</text>
</g>
<g >
<title>[unknown] (361,780 samples, 4.64%)</title><rect x="10.0" y="293" width="54.7" height="15.0" fill="rgb(205,58,58)" rx="2" ry="2" />
<text  x="13.00" y="303.5" >[unkn..</text>
</g>
<g >
<title>[unknown] (519,163 samples, 6.66%)</title><rect x="252.8" y="245" width="78.5" height="15.0" fill="rgb(205,58,58)" rx="2" ry="2" />
<text  x="255.77" y="255.5" >[unknown]</text>
</g>
<g >
<title>[unknown] (685,691 samples, 8.79%)</title><rect x="94.2" y="277" width="103.7" height="15.0" fill="rgb(205,58,58)" rx="2" ry="2" />
<text  x="97.17" y="287.5" >[unknown]</text>
</g>
<g >
<title>[unknown] (361,780 samples, 4.64%)</title><rect x="10.0" y="437" width="54.7" height="15.0" fill="rgb(205,58,58)" rx="2" ry="2" />
<text  x="13.00" y="447.5" >[unkn..</text>
</g>
<g >
<title>[unknown] (621,993 samples, 7.98%)</title><rect x="331.3" y="277" width="94.1" height="15.0" fill="rgb(205,58,58)" rx="2" ry="2" />
<text  x="334.33" y="287.5" >[unknown]</text>
</g>
<g >
<title>__dde_solver_m_MOD_dde_step (752,055 samples, 9.64%)</title><rect x="965.6" y="293" width="113.7" height="15.0" fill="rgb(250,123,123)" rx="2" ry="2" />
<text  x="968.55" y="303.5" >__dde_solver_m..</text>
</g>
<g >
<title>__snprintf_chk (1,163,710 samples, 14.92%)</title><rect x="504.6" y="293" width="176.0" height="15.0" fill="rgb(204,56,56)" rx="2" ry="2" />
<text  x="507.56" y="303.5" >__snprintf_chk</text>
</g>
<g >
<title>[unknown] (581,220 samples, 7.45%)</title><rect x="680.6" y="229" width="88.0" height="15.0" fill="rgb(205,58,58)" rx="2" ry="2" />
<text  x="683.65" y="239.5" >[unknown]</text>
</g>
<g >
<title>[unknown] (124,999 samples, 1.60%)</title><rect x="45.8" y="53" width="18.9" height="15.0" fill="rgb(205,58,58)" rx="2" ry="2" />
<text  x="48.83" y="63.5" ></text>
</g>
<g >
<title>[unknown] (685,691 samples, 8.79%)</title><rect x="94.2" y="293" width="103.7" height="15.0" fill="rgb(205,58,58)" rx="2" ry="2" />
<text  x="97.17" y="303.5" >[unknown]</text>
</g>
<g >
<title>[unknown] (581,220 samples, 7.45%)</title><rect x="680.6" y="181" width="88.0" height="15.0" fill="rgb(205,58,58)" rx="2" ry="2" />
<text  x="683.65" y="191.5" >[unknown]</text>
</g>
<g >
<title>[unknown] (361,780 samples, 4.64%)</title><rect x="10.0" y="277" width="54.7" height="15.0" fill="rgb(205,58,58)" rx="2" ry="2" />
<text  x="13.00" y="287.5" >[unkn..</text>
</g>
<g >
<title>[unknown] (362,508 samples, 4.65%)</title><rect x="197.9" y="245" width="54.9" height="15.0" fill="rgb(205,58,58)" rx="2" ry="2" />
<text  x="200.92" y="255.5" >[unkn..</text>
</g>
<g >
<title>[unknown] (362,508 samples, 4.65%)</title><rect x="197.9" y="133" width="54.9" height="15.0" fill="rgb(205,58,58)" rx="2" ry="2" />
<text  x="200.92" y="143.5" >[unkn..</text>
</g>
<g >
<title>[libgfortran.so.5.0.0] (3,569,499 samples, 45.77%)</title><rect x="425.4" y="357" width="540.2" height="15.0" fill="rgb(254,128,128)" rx="2" ry="2" />
<text  x="428.44" y="367.5" >[libgfortran.so.5.0.0]</text>
</g>
<g >
<title>[unknown] (519,163 samples, 6.66%)</title><rect x="252.8" y="117" width="78.5" height="15.0" fill="rgb(205,58,58)" rx="2" ry="2" />
<text  x="255.77" y="127.5" >[unknown]</text>
</g>
<g >
<title>[unknown] (621,993 samples, 7.98%)</title><rect x="331.3" y="85" width="94.1" height="15.0" fill="rgb(205,58,58)" rx="2" ry="2" />
<text  x="334.33" y="95.5" >[unknown]</text>
</g>
<g >
<title>[unknown] (519,163 samples, 6.66%)</title><rect x="252.8" y="213" width="78.5" height="15.0" fill="rgb(205,58,58)" rx="2" ry="2" />
<text  x="255.77" y="223.5" >[unknown]</text>
</g>
<g >
<title>[unknown] (685,691 samples, 8.79%)</title><rect x="94.2" y="309" width="103.7" height="15.0" fill="rgb(205,58,58)" rx="2" ry="2" />
<text  x="97.17" y="319.5" >[unknown]</text>
</g>
<g >
<title>[unknown] (362,508 samples, 4.65%)</title><rect x="197.9" y="197" width="54.9" height="15.0" fill="rgb(205,58,58)" rx="2" ry="2" />
<text  x="200.92" y="207.5" >[unkn..</text>
</g>
<g >
<title>main (5,052,843 samples, 64.79%)</title><rect x="425.4" y="389" width="764.6" height="15.0" fill="rgb(242,112,112)" rx="2" ry="2" />
<text  x="428.44" y="399.5" >main</text>
</g>
<g >
<title>[unknown] (361,780 samples, 4.64%)</title><rect x="10.0" y="389" width="54.7" height="15.0" fill="rgb(205,58,58)" rx="2" ry="2" />
<text  x="13.00" y="399.5" >[unkn..</text>
</g>
<g >
<title>[unknown] (361,780 samples, 4.64%)</title><rect x="10.0" y="373" width="54.7" height="15.0" fill="rgb(205,58,58)" rx="2" ry="2" />
<text  x="13.00" y="383.5" >[unkn..</text>
</g>
<g >
<title>[unknown] (581,220 samples, 7.45%)</title><rect x="680.6" y="261" width="88.0" height="15.0" fill="rgb(205,58,58)" rx="2" ry="2" />
<text  x="683.65" y="271.5" >[unknown]</text>
</g>
<g >
<title>[unknown] (581,220 samples, 7.45%)</title><rect x="680.6" y="165" width="88.0" height="15.0" fill="rgb(205,58,58)" rx="2" ry="2" />
<text  x="683.65" y="175.5" >[unknown]</text>
</g>
<g >
<title>[unknown] (362,508 samples, 4.65%)</title><rect x="197.9" y="149" width="54.9" height="15.0" fill="rgb(205,58,58)" rx="2" ry="2" />
<text  x="200.92" y="159.5" >[unkn..</text>
</g>
<g >
<title>openaux (881,671 samples, 11.31%)</title><rect x="197.9" y="341" width="133.4" height="15.0" fill="rgb(252,125,125)" rx="2" ry="2" />
<text  x="200.92" y="351.5" >openaux</text>
</g>
<g >
<title>[unknown] (519,163 samples, 6.66%)</title><rect x="252.8" y="149" width="78.5" height="15.0" fill="rgb(205,58,58)" rx="2" ry="2" />
<text  x="255.77" y="159.5" >[unknown]</text>
</g>
<g >
<title>[libgfortran.so.5.0.0] (3,569,499 samples, 45.77%)</title><rect x="425.4" y="341" width="540.2" height="15.0" fill="rgb(254,128,128)" rx="2" ry="2" />
<text  x="428.44" y="351.5" >[libgfortran.so.5.0.0]</text>
</g>
<g >
<title>[unknown] (752,055 samples, 9.64%)</title><rect x="965.6" y="101" width="113.7" height="15.0" fill="rgb(205,58,58)" rx="2" ry="2" />
<text  x="968.55" y="111.5" >[unknown]</text>
</g>
<g >
<title>[unknown] (685,691 samples, 8.79%)</title><rect x="94.2" y="341" width="103.7" height="15.0" fill="rgb(205,58,58)" rx="2" ry="2" />
<text  x="97.17" y="351.5" >[unknown]</text>
</g>
<g >
<title>_dl_runtime_resolve_xsavec (685,253 samples, 8.79%)</title><rect x="768.6" y="325" width="103.7" height="15.0" fill="rgb(214,70,70)" rx="2" ry="2" />
<text  x="771.59" y="335.5" >_dl_runtime_..</text>
</g>
<g >
<title>[unknown] (361,780 samples, 4.64%)</title><rect x="10.0" y="309" width="54.7" height="15.0" fill="rgb(205,58,58)" rx="2" ry="2" />
<text  x="13.00" y="319.5" >[unkn..</text>
</g>
<g >
<title>[unknown] (519,163 samples, 6.66%)</title><rect x="252.8" y="197" width="78.5" height="15.0" fill="rgb(205,58,58)" rx="2" ry="2" />
<text  x="255.77" y="207.5" >[unknown]</text>
</g>
<g >
<title>_start (5,052,843 samples, 64.79%)</title><rect x="425.4" y="437" width="764.6" height="15.0" fill="rgb(244,114,114)" rx="2" ry="2" />
<text  x="428.44" y="447.5" >_start</text>
</g>
</g>
</svg>
