<?xml version="1.0" standalone="no"?>
<!DOCTYPE svg PUBLIC "-//W3C//DTD SVG 1.1//EN" "http://www.w3.org/Graphics/SVG/1.1/DTD/svg11.dtd">
<svg version="1.1" width="1200" height="486" onload="init(evt)" viewBox="0 0 1200 486" xmlns="http://www.w3.org/2000/svg" xmlns:xlink="http://www.w3.org/1999/xlink">
<!-- Flame graph stack visualization. See https://github.com/brendangregg/FlameGraph for latest version, and http://www.brendangregg.com/flamegraphs.html for examples. -->
<!-- NOTES:  -->
<defs>
	<linearGradient id="background" y1="0" y2="1" x1="0" x2="0" >
		<stop stop-color="#eeeeee" offset="5%" />
		<stop stop-color="#eeeeb0" offset="95%" />
	</linearGradient>
</defs>
<style type="text/css">
	text { font-family:Verdana; font-size:12px; fill:rgb(0,0,0); }
	#search, #ignorecase { opacity:0.1; cursor:pointer; }
	#search:hover, #search.show, #ignorecase:hover, #ignorecase.show { opacity:1; }
	#subtitle { text-anchor:middle; font-color:rgb(160,160,160); }
	#title { text-anchor:middle; font-size:17px}
	#unzoom { cursor:pointer; }
	#frames > *:hover { stroke:black; stroke-width:0.5; cursor:pointer; }
	.hide { display:none; }
	.parent { opacity:0.5; }
</style>
<script type="text/ecmascript">
<![CDATA[
	"use strict";
	var details, searchbtn, unzoombtn, matchedtxt, svg, searching, currentSearchTerm, ignorecase, ignorecaseBtn;
	function init(evt) {
		details = document.getElementById("details").firstChild;
		searchbtn = document.getElementById("search");
		ignorecaseBtn = document.getElementById("ignorecase");
		unzoombtn = document.getElementById("unzoom");
		matchedtxt = document.getElementById("matched");
		svg = document.getElementsByTagName("svg")[0];
		searching = 0;
		currentSearchTerm = null;

		// use GET parameters to restore a flamegraphs state.
		var params = get_params();
		if (params.x && params.y)
			zoom(find_group(document.querySelector('[x="' + params.x + '"][y="' + params.y + '"]')));
                if (params.s) search(params.s);
	}

	// event listeners
	window.addEventListener("click", function(e) {
		var target = find_group(e.target);
		if (target) {
			if (target.nodeName == "a") {
				if (e.ctrlKey === false) return;
				e.preventDefault();
			}
			if (target.classList.contains("parent")) unzoom(true);
			zoom(target);
			if (!document.querySelector('.parent')) {
				// we have basically done a clearzoom so clear the url
				var params = get_params();
				if (params.x) delete params.x;
				if (params.y) delete params.y;
				history.replaceState(null, null, parse_params(params));
				unzoombtn.classList.add("hide");
				return;
			}

			// set parameters for zoom state
			var el = target.querySelector("rect");
			if (el && el.attributes && el.attributes.y && el.attributes._orig_x) {
				var params = get_params()
				params.x = el.attributes._orig_x.value;
				params.y = el.attributes.y.value;
				history.replaceState(null, null, parse_params(params));
			}
		}
		else if (e.target.id == "unzoom") clearzoom();
		else if (e.target.id == "search") search_prompt();
		else if (e.target.id == "ignorecase") toggle_ignorecase();
	}, false)

	// mouse-over for info
	// show
	window.addEventListener("mouseover", function(e) {
		var target = find_group(e.target);
		if (target) details.nodeValue = "Function: " + g_to_text(target);
	}, false)

	// clear
	window.addEventListener("mouseout", function(e) {
		var target = find_group(e.target);
		if (target) details.nodeValue = ' ';
	}, false)

	// ctrl-F for search
	// ctrl-I to toggle case-sensitive search
	window.addEventListener("keydown",function (e) {
		if (e.keyCode === 114 || (e.ctrlKey && e.keyCode === 70)) {
			e.preventDefault();
			search_prompt();
		}
		else if (e.ctrlKey && e.keyCode === 73) {
			e.preventDefault();
			toggle_ignorecase();
		}
	}, false)

	// functions
	function get_params() {
		var params = {};
		var paramsarr = window.location.search.substr(1).split('&');
		for (var i = 0; i < paramsarr.length; ++i) {
			var tmp = paramsarr[i].split("=");
			if (!tmp[0] || !tmp[1]) continue;
			params[tmp[0]]  = decodeURIComponent(tmp[1]);
		}
		return params;
	}
	function parse_params(params) {
		var uri = "?";
		for (var key in params) {
			uri += key + '=' + encodeURIComponent(params[key]) + '&';
		}
		if (uri.slice(-1) == "&")
			uri = uri.substring(0, uri.length - 1);
		if (uri == '?')
			uri = window.location.href.split('?')[0];
		return uri;
	}
	function find_child(node, selector) {
		var children = node.querySelectorAll(selector);
		if (children.length) return children[0];
	}
	function find_group(node) {
		var parent = node.parentElement;
		if (!parent) return;
		if (parent.id == "frames") return node;
		return find_group(parent);
	}
	function orig_save(e, attr, val) {
		if (e.attributes["_orig_" + attr] != undefined) return;
		if (e.attributes[attr] == undefined) return;
		if (val == undefined) val = e.attributes[attr].value;
		e.setAttribute("_orig_" + attr, val);
	}
	function orig_load(e, attr) {
		if (e.attributes["_orig_"+attr] == undefined) return;
		e.attributes[attr].value = e.attributes["_orig_" + attr].value;
		e.removeAttribute("_orig_"+attr);
	}
	function g_to_text(e) {
		var text = find_child(e, "title").firstChild.nodeValue;
		return (text)
	}
	function g_to_func(e) {
		var func = g_to_text(e);
		// if there's any manipulation we want to do to the function
		// name before it's searched, do it here before returning.
		return (func);
	}
	function update_text(e) {
		var r = find_child(e, "rect");
		var t = find_child(e, "text");
		var w = parseFloat(r.attributes.width.value) -3;
		var txt = find_child(e, "title").textContent.replace(/\([^(]*\)$/,"");
		t.attributes.x.value = parseFloat(r.attributes.x.value) + 3;

		// Smaller than this size won't fit anything
		if (w < 2 * 12 * 0.59) {
			t.textContent = "";
			return;
		}

		t.textContent = txt;
		var sl = t.getSubStringLength(0, txt.length);
		// check if only whitespace or if we can fit the entire string into width w
		if (/^ *$/.test(txt) || sl < w)
			return;

		// this isn't perfect, but gives a good starting point
		// and avoids calling getSubStringLength too often
		var start = Math.floor((w/sl) * txt.length);
		for (var x = start; x > 0; x = x-2) {
			if (t.getSubStringLength(0, x + 2) <= w) {
				t.textContent = txt.substring(0, x) + "..";
				return;
			}
		}
		t.textContent = "";
	}

	// zoom
	function zoom_reset(e) {
		if (e.attributes != undefined) {
			orig_load(e, "x");
			orig_load(e, "width");
		}
		if (e.childNodes == undefined) return;
		for (var i = 0, c = e.childNodes; i < c.length; i++) {
			zoom_reset(c[i]);
		}
	}
	function zoom_child(e, x, ratio) {
		if (e.attributes != undefined) {
			if (e.attributes.x != undefined) {
				orig_save(e, "x");
				e.attributes.x.value = (parseFloat(e.attributes.x.value) - x - 10) * ratio + 10;
				if (e.tagName == "text")
					e.attributes.x.value = find_child(e.parentNode, "rect[x]").attributes.x.value + 3;
			}
			if (e.attributes.width != undefined) {
				orig_save(e, "width");
				e.attributes.width.value = parseFloat(e.attributes.width.value) * ratio;
			}
		}

		if (e.childNodes == undefined) return;
		for (var i = 0, c = e.childNodes; i < c.length; i++) {
			zoom_child(c[i], x - 10, ratio);
		}
	}
	function zoom_parent(e) {
		if (e.attributes) {
			if (e.attributes.x != undefined) {
				orig_save(e, "x");
				e.attributes.x.value = 10;
			}
			if (e.attributes.width != undefined) {
				orig_save(e, "width");
				e.attributes.width.value = parseInt(svg.width.baseVal.value) - (10 * 2);
			}
		}
		if (e.childNodes == undefined) return;
		for (var i = 0, c = e.childNodes; i < c.length; i++) {
			zoom_parent(c[i]);
		}
	}
	function zoom(node) {
		var attr = find_child(node, "rect").attributes;
		var width = parseFloat(attr.width.value);
		var xmin = parseFloat(attr.x.value);
		var xmax = parseFloat(xmin + width);
		var ymin = parseFloat(attr.y.value);
		var ratio = (svg.width.baseVal.value - 2 * 10) / width;

		// XXX: Workaround for JavaScript float issues (fix me)
		var fudge = 0.0001;

		unzoombtn.classList.remove("hide");

		var el = document.getElementById("frames").children;
		for (var i = 0; i < el.length; i++) {
			var e = el[i];
			var a = find_child(e, "rect").attributes;
			var ex = parseFloat(a.x.value);
			var ew = parseFloat(a.width.value);
			var upstack;
			// Is it an ancestor
			if (0 == 0) {
				upstack = parseFloat(a.y.value) > ymin;
			} else {
				upstack = parseFloat(a.y.value) < ymin;
			}
			if (upstack) {
				// Direct ancestor
				if (ex <= xmin && (ex+ew+fudge) >= xmax) {
					e.classList.add("parent");
					zoom_parent(e);
					update_text(e);
				}
				// not in current path
				else
					e.classList.add("hide");
			}
			// Children maybe
			else {
				// no common path
				if (ex < xmin || ex + fudge >= xmax) {
					e.classList.add("hide");
				}
				else {
					zoom_child(e, xmin, ratio);
					update_text(e);
				}
			}
		}
		search();
	}
	function unzoom(dont_update_text) {
		unzoombtn.classList.add("hide");
		var el = document.getElementById("frames").children;
		for(var i = 0; i < el.length; i++) {
			el[i].classList.remove("parent");
			el[i].classList.remove("hide");
			zoom_reset(el[i]);
			if(!dont_update_text) update_text(el[i]);
		}
		search();
	}
	function clearzoom() {
		unzoom();

		// remove zoom state
		var params = get_params();
		if (params.x) delete params.x;
		if (params.y) delete params.y;
		history.replaceState(null, null, parse_params(params));
	}

	// search
	function toggle_ignorecase() {
		ignorecase = !ignorecase;
		if (ignorecase) {
			ignorecaseBtn.classList.add("show");
		} else {
			ignorecaseBtn.classList.remove("show");
		}
		reset_search();
		search();
	}
	function reset_search() {
		var el = document.querySelectorAll("#frames rect");
		for (var i = 0; i < el.length; i++) {
			orig_load(el[i], "fill")
		}
		var params = get_params();
		delete params.s;
		history.replaceState(null, null, parse_params(params));
	}
	function search_prompt() {
		if (!searching) {
			var term = prompt("Enter a search term (regexp " +
			    "allowed, eg: ^ext4_)"
			    + (ignorecase ? ", ignoring case" : "")
			    + "\nPress Ctrl-i to toggle case sensitivity", "");
			if (term != null) search(term);
		} else {
			reset_search();
			searching = 0;
			currentSearchTerm = null;
			searchbtn.classList.remove("show");
			searchbtn.firstChild.nodeValue = "Search"
			matchedtxt.classList.add("hide");
			matchedtxt.firstChild.nodeValue = ""
		}
	}
	function search(term) {
		if (term) currentSearchTerm = term;

		var re = new RegExp(currentSearchTerm, ignorecase ? 'i' : '');
		var el = document.getElementById("frames").children;
		var matches = new Object();
		var maxwidth = 0;
		for (var i = 0; i < el.length; i++) {
			var e = el[i];
			var func = g_to_func(e);
			var rect = find_child(e, "rect");
			if (func == null || rect == null)
				continue;

			// Save max width. Only works as we have a root frame
			var w = parseFloat(rect.attributes.width.value);
			if (w > maxwidth)
				maxwidth = w;

			if (func.match(re)) {
				// highlight
				var x = parseFloat(rect.attributes.x.value);
				orig_save(rect, "fill");
				rect.attributes.fill.value = "rgb(230,0,230)";

				// remember matches
				if (matches[x] == undefined) {
					matches[x] = w;
				} else {
					if (w > matches[x]) {
						// overwrite with parent
						matches[x] = w;
					}
				}
				searching = 1;
			}
		}
		if (!searching)
			return;
		var params = get_params();
		params.s = currentSearchTerm;
		history.replaceState(null, null, parse_params(params));

		searchbtn.classList.add("show");
		searchbtn.firstChild.nodeValue = "Reset Search";

		// calculate percent matched, excluding vertical overlap
		var count = 0;
		var lastx = -1;
		var lastw = 0;
		var keys = Array();
		for (k in matches) {
			if (matches.hasOwnProperty(k))
				keys.push(k);
		}
		// sort the matched frames by their x location
		// ascending, then width descending
		keys.sort(function(a, b){
			return a - b;
		});
		// Step through frames saving only the biggest bottom-up frames
		// thanks to the sort order. This relies on the tree property
		// where children are always smaller than their parents.
		var fudge = 0.0001;	// JavaScript floating point
		for (var k in keys) {
			var x = parseFloat(keys[k]);
			var w = matches[keys[k]];
			if (x >= lastx + lastw - fudge) {
				count += w;
				lastx = x;
				lastw = w;
			}
		}
		// display matched percent
		matchedtxt.classList.remove("hide");
		var pct = 100 * count / maxwidth;
		if (pct != 100) pct = pct.toFixed(1)
		matchedtxt.firstChild.nodeValue = "Matched: " + pct + "%";
	}
]]>
</script>
<rect x="0.0" y="0" width="1200.0" height="486.0" fill="url(#background)"  />
<text id="title" x="600.00" y="24" >bc_model</text>
<text id="details" x="10.00" y="469" > </text>
<text id="unzoom" x="10.00" y="24" class="hide">Reset Zoom</text>
<text id="search" x="1090.00" y="24" >Search</text>
<text id="ignorecase" x="1174.00" y="24" >ic</text>
<text id="matched" x="1090.00" y="469" > </text>
<g id="frames">
<g >
<title>__build_id_parse (82,264 samples, 0.87%)</title><rect x="285.3" y="101" width="10.2" height="15.0" fill="rgb(240,108,108)" rx="2" ry="2" />
<text  x="288.29" y="111.5" ></text>
</g>
<g >
<title>generic_file_read_iter (568,265 samples, 6.01%)</title><rect x="18.0" y="149" width="70.9" height="15.0" fill="rgb(218,77,77)" rx="2" ry="2" />
<text  x="21.04" y="159.5" >generic_..</text>
</g>
<g >
<title>begin_new_exec (1,330 samples, 0.01%)</title><rect x="1189.8" y="245" width="0.2" height="15.0" fill="rgb(244,114,114)" rx="2" ry="2" />
<text  x="1192.83" y="255.5" ></text>
</g>
<g >
<title>__perf_event_task_sched_in (1,317 samples, 0.01%)</title><rect x="88.9" y="229" width="0.2" height="15.0" fill="rgb(229,92,92)" rx="2" ry="2" />
<text  x="91.90" y="239.5" ></text>
</g>
<g >
<title>vma_modify_flags (298,955 samples, 3.16%)</title><rect x="89.1" y="229" width="37.2" height="15.0" fill="rgb(211,67,67)" rx="2" ry="2" />
<text  x="92.07" y="239.5" >vma..</text>
</g>
<g >
<title>std::vector&lt;double, std::allocator&lt;double&gt; &gt;* std::__uninitialized_fill_n_a&lt;std::vector&lt;double, std::allocator&lt;double&gt; &gt;*, unsigned long, std::vector&lt;double, std::allocator&lt;double&gt; &gt;, std::vector&lt;double, std::allocator&lt;double&gt; &gt; &gt; (726,657 samples, 7.68%)</title><rect x="1099.2" y="293" width="90.6" height="15.0" fill="rgb(212,212,63)" rx="2" ry="2" />
<text  x="1102.22" y="303.5" >std::vecto..</text>
</g>
<g >
<title>std::vector&lt;double, std::allocator&lt;double&gt; &gt;* std::__do_uninit_fill_n&lt;std::vector&lt;double, std::allocator&lt;double&gt; &gt;*, unsigned long, std::vector&lt;double, std::allocator&lt;double&gt; &gt; &gt; (726,657 samples, 7.68%)</title><rect x="1099.2" y="245" width="90.6" height="15.0" fill="rgb(201,201,59)" rx="2" ry="2" />
<text  x="1102.22" y="255.5" >std::vecto..</text>
</g>
<g >
<title>__gnu_cxx::__promote_2&lt;decltype  (844,008 samples, 8.92%)</title><rect x="481.8" y="245" width="105.2" height="15.0" fill="rgb(225,225,68)" rx="2" ry="2" />
<text  x="484.78" y="255.5" >__gnu_cxx::_..</text>
</g>
<g >
<title>entry_SYSCALL_64_after_hwframe (1,330 samples, 0.01%)</title><rect x="1189.8" y="389" width="0.2" height="15.0" fill="rgb(215,72,72)" rx="2" ry="2" />
<text  x="1192.83" y="399.5" ></text>
</g>
<g >
<title>__exp_finite (1,266,222 samples, 13.38%)</title><rect x="126.3" y="341" width="158.0" height="15.0" fill="rgb(242,111,111)" rx="2" ry="2" />
<text  x="129.35" y="351.5" >__exp_finite</text>
</g>
<g >
<title>filemap_get_read_batch (568,265 samples, 6.01%)</title><rect x="18.0" y="101" width="70.9" height="15.0" fill="rgb(229,93,93)" rx="2" ry="2" />
<text  x="21.04" y="111.5" >filemap_..</text>
</g>
<g >
<title>exc_page_fault (1,266,222 samples, 13.38%)</title><rect x="126.3" y="309" width="158.0" height="15.0" fill="rgb(208,62,62)" rx="2" ry="2" />
<text  x="129.35" y="319.5" >exc_page_fault</text>
</g>
<g >
<title>perf_iterate_ctx (8,295 samples, 0.09%)</title><rect x="284.3" y="165" width="1.0" height="15.0" fill="rgb(200,51,51)" rx="2" ry="2" />
<text  x="287.25" y="175.5" ></text>
</g>
<g >
<title>std::vector&lt;double, std::allocator&lt;double&gt; &gt;::size (726,657 samples, 7.68%)</title><rect x="1099.2" y="213" width="90.6" height="15.0" fill="rgb(207,207,61)" rx="2" ry="2" />
<text  x="1102.22" y="223.5" >std::vecto..</text>
</g>
<g >
<title>do_execveat_common.isra.0 (90,559 samples, 0.96%)</title><rect x="284.3" y="325" width="11.2" height="15.0" fill="rgb(229,92,92)" rx="2" ry="2" />
<text  x="287.25" y="335.5" ></text>
</g>
<g >
<title>std::vector&lt;std::array&lt;double, 2ul&gt;, std::allocator&lt;std::array&lt;double, 2ul&gt; &gt; &gt;::operator[] (807,470 samples, 8.53%)</title><rect x="812.7" y="165" width="100.6" height="15.0" fill="rgb(213,213,64)" rx="2" ry="2" />
<text  x="815.65" y="175.5" >std::vector&lt;..</text>
</g>
<g >
<title>freader_get_folio (82,264 samples, 0.87%)</title><rect x="285.3" y="69" width="10.2" height="15.0" fill="rgb(239,107,107)" rx="2" ry="2" />
<text  x="288.29" y="79.5" ></text>
</g>
<g >
<title>[ld-linux-x86-64.so.2] (64,442 samples, 0.68%)</title><rect x="10.0" y="325" width="8.0" height="15.0" fill="rgb(242,112,112)" rx="2" ry="2" />
<text  x="13.00" y="335.5" ></text>
</g>
<g >
<title>merge_sched_in (1,317 samples, 0.01%)</title><rect x="88.9" y="165" width="0.2" height="15.0" fill="rgb(231,96,96)" rx="2" ry="2" />
<text  x="91.90" y="175.5" ></text>
</g>
<g >
<title>[ld-linux-x86-64.so.2] (2,199,201 samples, 23.24%)</title><rect x="10.0" y="373" width="274.3" height="15.0" fill="rgb(242,112,112)" rx="2" ry="2" />
<text  x="13.00" y="383.5" >[ld-linux-x86-64.so.2]</text>
</g>
<g >
<title>vm_mmap_pgoff (82,264 samples, 0.87%)</title><rect x="285.3" y="213" width="10.2" height="15.0" fill="rgb(235,102,102)" rx="2" ry="2" />
<text  x="288.29" y="223.5" ></text>
</g>
<g >
<title>[libm.so.6] (844,008 samples, 8.92%)</title><rect x="481.8" y="229" width="105.2" height="15.0" fill="rgb(204,55,55)" rx="2" ry="2" />
<text  x="484.78" y="239.5" >[libm.so.6]</text>
</g>
<g >
<title>RingBuffer&lt;double&gt;::advance (723,831 samples, 7.65%)</title><rect x="1008.9" y="261" width="90.3" height="15.0" fill="rgb(210,210,62)" rx="2" ry="2" />
<text  x="1011.95" y="271.5" >RingBuffer..</text>
</g>
<g >
<title>__x64_sys_execve (1,330 samples, 0.01%)</title><rect x="1189.8" y="341" width="0.2" height="15.0" fill="rgb(246,117,117)" rx="2" ry="2" />
<text  x="1192.83" y="351.5" ></text>
</g>
<g >
<title>_dl_catch_exception (568,265 samples, 6.01%)</title><rect x="18.0" y="325" width="70.9" height="15.0" fill="rgb(253,127,127)" rx="2" ry="2" />
<text  x="21.04" y="335.5" >_dl_catc..</text>
</g>
<g >
<title>perf_event_comm_event.constprop.0 (8,295 samples, 0.09%)</title><rect x="284.3" y="197" width="1.0" height="15.0" fill="rgb(214,70,70)" rx="2" ry="2" />
<text  x="287.25" y="207.5" ></text>
</g>
<g >
<title>History&lt;double, double&gt;::interpolate (2,616,679 samples, 27.65%)</title><rect x="587.0" y="213" width="326.3" height="15.0" fill="rgb(187,187,54)" rx="2" ry="2" />
<text  x="590.03" y="223.5" >History&lt;double, double&gt;::interpolate</text>
</g>
<g >
<title>[ld-linux-x86-64.so.2] (57,409 samples, 0.61%)</title><rect x="10.9" y="293" width="7.1" height="15.0" fill="rgb(242,112,112)" rx="2" ry="2" />
<text  x="13.88" y="303.5" ></text>
</g>
<g >
<title>std::vector&lt;std::array&lt;double, 2ul&gt;, std::allocator&lt;std::array&lt;double, 2ul&gt; &gt; &gt;::at (1,698,879 samples, 17.95%)</title><rect x="701.5" y="181" width="211.8" height="15.0" fill="rgb(182,182,52)" rx="2" ry="2" />
<text  x="704.49" y="191.5" >std::vector&lt;std::array&lt;doub..</text>
</g>
<g >
<title>std::vector&lt;double, std::allocator&lt;double&gt; &gt;* std::__uninitialized_fill_n&lt;false&gt;::__uninit_fill_n&lt;std::vector&lt;double, std::allocator&lt;double&gt; &gt;*, unsigned long, std::vector&lt;double, std::allocator&lt;double&gt; &gt; &gt; (726,657 samples, 7.68%)</title><rect x="1099.2" y="261" width="90.6" height="15.0" fill="rgb(215,215,64)" rx="2" ry="2" />
<text  x="1102.22" y="271.5" >std::vecto..</text>
</g>
<g >
<title>__schedule (1,317 samples, 0.01%)</title><rect x="88.9" y="261" width="0.2" height="15.0" fill="rgb(224,86,86)" rx="2" ry="2" />
<text  x="91.90" y="271.5" ></text>
</g>
<g >
<title>do_syscall_64 (568,265 samples, 6.01%)</title><rect x="18.0" y="245" width="70.9" height="15.0" fill="rgb(204,57,57)" rx="2" ry="2" />
<text  x="21.04" y="255.5" >do_sysca..</text>
</g>
<g >
<title>_start (7,171,117 samples, 75.79%)</title><rect x="295.5" y="405" width="894.3" height="15.0" fill="rgb(244,114,114)" rx="2" ry="2" />
<text  x="298.55" y="415.5" >_start</text>
</g>
<g >
<title>do_fault (1,266,222 samples, 13.38%)</title><rect x="126.3" y="229" width="158.0" height="15.0" fill="rgb(247,119,119)" rx="2" ry="2" />
<text  x="129.35" y="239.5" >do_fault</text>
</g>
<g >
<title>do_read_fault (1,266,222 samples, 13.38%)</title><rect x="126.3" y="213" width="158.0" height="15.0" fill="rgb(220,79,79)" rx="2" ry="2" />
<text  x="129.35" y="223.5" >do_read_fault</text>
</g>
<g >
<title>[ld-linux-x86-64.so.2] (2,199,201 samples, 23.24%)</title><rect x="10.0" y="357" width="274.3" height="15.0" fill="rgb(242,112,112)" rx="2" ry="2" />
<text  x="13.00" y="367.5" >[ld-linux-x86-64.so.2]</text>
</g>
<g >
<title>main (7,171,117 samples, 75.79%)</title><rect x="295.5" y="357" width="894.3" height="15.0" fill="rgb(242,112,112)" rx="2" ry="2" />
<text  x="298.55" y="367.5" >main</text>
</g>
<g >
<title>vma_interval_tree_insert (298,955 samples, 3.16%)</title><rect x="89.1" y="165" width="37.2" height="15.0" fill="rgb(200,50,50)" rx="2" ry="2" />
<text  x="92.07" y="175.5" >vma..</text>
</g>
<g >
<title>irqentry_exit (1,317 samples, 0.01%)</title><rect x="88.9" y="293" width="0.2" height="15.0" fill="rgb(215,73,73)" rx="2" ry="2" />
<text  x="91.90" y="303.5" ></text>
</g>
<g >
<title>ctx_resched (1,330 samples, 0.01%)</title><rect x="1189.8" y="197" width="0.2" height="15.0" fill="rgb(243,112,112)" rx="2" ry="2" />
<text  x="1192.83" y="207.5" ></text>
</g>
<g >
<title>x64_sys_call (568,265 samples, 6.01%)</title><rect x="18.0" y="229" width="70.9" height="15.0" fill="rgb(246,117,117)" rx="2" ry="2" />
<text  x="21.04" y="239.5" >x64_sys_..</text>
</g>
<g >
<title>do_user_addr_fault (1,266,222 samples, 13.38%)</title><rect x="126.3" y="293" width="158.0" height="15.0" fill="rgb(225,87,87)" rx="2" ry="2" />
<text  x="129.35" y="303.5" >do_user_addr_fault</text>
</g>
<g >
<title>bprm_execve (90,559 samples, 0.96%)</title><rect x="284.3" y="309" width="11.2" height="15.0" fill="rgb(214,71,71)" rx="2" ry="2" />
<text  x="287.25" y="319.5" ></text>
</g>
<g >
<title>handle_mm_fault (1,266,222 samples, 13.38%)</title><rect x="126.3" y="277" width="158.0" height="15.0" fill="rgb(232,97,97)" rx="2" ry="2" />
<text  x="129.35" y="287.5" >handle_mm_fault</text>
</g>
<g >
<title>DoPri_5&lt;&amp; (6,444,460 samples, 68.11%)</title><rect x="295.5" y="309" width="803.7" height="15.0" fill="rgb(234,100,100)" rx="2" ry="2" />
<text  x="298.55" y="319.5" >DoPri_5&lt;&amp;</text>
</g>
<g >
<title>visit_groups_merge.constprop.0.isra.0 (1,317 samples, 0.01%)</title><rect x="88.9" y="181" width="0.2" height="15.0" fill="rgb(216,74,74)" rx="2" ry="2" />
<text  x="91.90" y="191.5" ></text>
</g>
<g >
<title>__x64_sys_execve (90,559 samples, 0.96%)</title><rect x="284.3" y="341" width="11.2" height="15.0" fill="rgb(246,117,117)" rx="2" ry="2" />
<text  x="287.25" y="351.5" ></text>
</g>
<g >
<title>entry_SYSCALL_64_after_hwframe (298,955 samples, 3.16%)</title><rect x="89.1" y="325" width="37.2" height="15.0" fill="rgb(215,72,72)" rx="2" ry="2" />
<text  x="92.07" y="335.5" >ent..</text>
</g>
<g >
<title>event_sched_in (1,330 samples, 0.01%)</title><rect x="1189.8" y="117" width="0.2" height="15.0" fill="rgb(213,70,70)" rx="2" ry="2" />
<text  x="1192.83" y="127.5" ></text>
</g>
<g >
<title>load_elf_binary (90,559 samples, 0.96%)</title><rect x="284.3" y="261" width="11.2" height="15.0" fill="rgb(220,79,79)" rx="2" ry="2" />
<text  x="287.25" y="271.5" ></text>
</g>
<g >
<title>[ld-linux-x86-64.so.2] (2,199,201 samples, 23.24%)</title><rect x="10.0" y="389" width="274.3" height="15.0" fill="rgb(242,112,112)" rx="2" ry="2" />
<text  x="13.00" y="399.5" >[ld-linux-x86-64.so.2]</text>
</g>
<g >
<title>perf_ibs_add (1,317 samples, 0.01%)</title><rect x="88.9" y="133" width="0.2" height="15.0" fill="rgb(240,109,109)" rx="2" ry="2" />
<text  x="91.90" y="143.5" ></text>
</g>
<g >
<title>bprm_execve.part.0 (1,330 samples, 0.01%)</title><rect x="1189.8" y="293" width="0.2" height="15.0" fill="rgb(225,86,86)" rx="2" ry="2" />
<text  x="1192.83" y="303.5" ></text>
</g>
<g >
<title>do_syscall_64 (298,955 samples, 3.16%)</title><rect x="89.1" y="309" width="37.2" height="15.0" fill="rgb(204,57,57)" rx="2" ry="2" />
<text  x="92.07" y="319.5" >do_..</text>
</g>
<g >
<title>asm_sysvec_reschedule_ipi (1,317 samples, 0.01%)</title><rect x="88.9" y="325" width="0.2" height="15.0" fill="rgb(249,121,121)" rx="2" ry="2" />
<text  x="91.90" y="335.5" ></text>
</g>
<g >
<title>__libc_start_main (7,171,117 samples, 75.79%)</title><rect x="295.5" y="389" width="894.3" height="15.0" fill="rgb(234,99,99)" rx="2" ry="2" />
<text  x="298.55" y="399.5" >__libc_start_main</text>
</g>
<g >
<title>[ld-linux-x86-64.so.2] (568,265 samples, 6.01%)</title><rect x="18.0" y="293" width="70.9" height="15.0" fill="rgb(242,112,112)" rx="2" ry="2" />
<text  x="21.04" y="303.5" >[ld-linu..</text>
</g>
<g >
<title>handle_pte_fault (1,266,222 samples, 13.38%)</title><rect x="126.3" y="245" width="158.0" height="15.0" fill="rgb(213,69,69)" rx="2" ry="2" />
<text  x="129.35" y="255.5" >handle_pte_fault</text>
</g>
<g >
<title>perf_iterate_sb.constprop.0 (8,295 samples, 0.09%)</title><rect x="284.3" y="181" width="1.0" height="15.0" fill="rgb(227,89,89)" rx="2" ry="2" />
<text  x="287.25" y="191.5" ></text>
</g>
<g >
<title>mmap_region (82,264 samples, 0.87%)</title><rect x="285.3" y="181" width="10.2" height="15.0" fill="rgb(228,92,92)" rx="2" ry="2" />
<text  x="288.29" y="191.5" ></text>
</g>
<g >
<title>filemap_get_entry (82,264 samples, 0.87%)</title><rect x="285.3" y="37" width="10.2" height="15.0" fill="rgb(246,117,117)" rx="2" ry="2" />
<text  x="288.29" y="47.5" ></text>
</g>
<g >
<title>load_elf_binary (1,330 samples, 0.01%)</title><rect x="1189.8" y="261" width="0.2" height="15.0" fill="rgb(220,79,79)" rx="2" ry="2" />
<text  x="1192.83" y="271.5" ></text>
</g>
<g >
<title>[ld-linux-x86-64.so.2] (932,979 samples, 9.86%)</title><rect x="10.0" y="341" width="116.3" height="15.0" fill="rgb(242,112,112)" rx="2" ry="2" />
<text  x="13.00" y="351.5" >[ld-linux-x86-..</text>
</g>
<g >
<title>DDEInt&lt;&amp; (4,227,298 samples, 44.68%)</title><rect x="481.8" y="277" width="527.1" height="15.0" fill="rgb(221,81,81)" rx="2" ry="2" />
<text  x="484.78" y="287.5" >DDEInt&lt;&amp;</text>
</g>
<g >
<title>std::vector&lt;std::array&lt;double, 2ul&gt;, std::allocator&lt;std::array&lt;double, 2ul&gt; &gt; &gt;::_M_range_check (891,409 samples, 9.42%)</title><rect x="701.5" y="165" width="111.2" height="15.0" fill="rgb(184,184,53)" rx="2" ry="2" />
<text  x="704.49" y="175.5" >std::vector&lt;s..</text>
</g>
<g >
<title>filemap_map_pages (1,266,222 samples, 13.38%)</title><rect x="126.3" y="197" width="158.0" height="15.0" fill="rgb(227,89,89)" rx="2" ry="2" />
<text  x="129.35" y="207.5" >filemap_map_pages</text>
</g>
<g >
<title>do_execveat_common.isra.0 (1,330 samples, 0.01%)</title><rect x="1189.8" y="325" width="0.2" height="15.0" fill="rgb(229,92,92)" rx="2" ry="2" />
<text  x="1192.83" y="335.5" ></text>
</g>
<g >
<title>ctx_sched_in (1,330 samples, 0.01%)</title><rect x="1189.8" y="165" width="0.2" height="15.0" fill="rgb(228,90,90)" rx="2" ry="2" />
<text  x="1192.83" y="175.5" ></text>
</g>
<g >
<title>[unknown] (90,559 samples, 0.96%)</title><rect x="284.3" y="405" width="11.2" height="15.0" fill="rgb(205,58,58)" rx="2" ry="2" />
<text  x="287.25" y="415.5" ></text>
</g>
<g >
<title>[ld-linux-x86-64.so.2] (568,265 samples, 6.01%)</title><rect x="18.0" y="277" width="70.9" height="15.0" fill="rgb(242,112,112)" rx="2" ry="2" />
<text  x="21.04" y="287.5" >[ld-linu..</text>
</g>
<g >
<title>srso_alias_safe_ret (298,955 samples, 3.16%)</title><rect x="89.1" y="149" width="37.2" height="15.0" fill="rgb(240,109,109)" rx="2" ry="2" />
<text  x="92.07" y="159.5" >srs..</text>
</g>
<g >
<title>perf_event_update_userpage (1,317 samples, 0.01%)</title><rect x="88.9" y="101" width="0.2" height="15.0" fill="rgb(210,65,65)" rx="2" ry="2" />
<text  x="91.90" y="111.5" ></text>
</g>
<g >
<title>[ld-linux-x86-64.so.2] (2,199,201 samples, 23.24%)</title><rect x="10.0" y="405" width="274.3" height="15.0" fill="rgb(242,112,112)" rx="2" ry="2" />
<text  x="13.00" y="415.5" >[ld-linux-x86-64.so.2]</text>
</g>
<g >
<title>DDEInt&lt;&amp; (761,098 samples, 8.04%)</title><rect x="295.5" y="293" width="95.0" height="15.0" fill="rgb(221,81,81)" rx="2" ry="2" />
<text  x="298.55" y="303.5" >DDEInt&lt;&amp;</text>
</g>
<g >
<title>perf_event_comm_output (8,295 samples, 0.09%)</title><rect x="284.3" y="149" width="1.0" height="15.0" fill="rgb(203,55,55)" rx="2" ry="2" />
<text  x="287.25" y="159.5" ></text>
</g>
<g >
<title>do_syscall_64 (90,559 samples, 0.96%)</title><rect x="284.3" y="373" width="11.2" height="15.0" fill="rgb(204,57,57)" rx="2" ry="2" />
<text  x="287.25" y="383.5" ></text>
</g>
<g >
<title>vfs_read (568,265 samples, 6.01%)</title><rect x="18.0" y="181" width="70.9" height="15.0" fill="rgb(221,80,80)" rx="2" ry="2" />
<text  x="21.04" y="191.5" >vfs_read</text>
</g>
<g >
<title>__x64_sys_read (568,265 samples, 6.01%)</title><rect x="18.0" y="213" width="70.9" height="15.0" fill="rgb(216,73,73)" rx="2" ry="2" />
<text  x="21.04" y="223.5" >__x64_sy..</text>
</g>
<g >
<title>perf-exec (1,330 samples, 0.01%)</title><rect x="1189.8" y="421" width="0.2" height="15.0" fill="rgb(229,93,93)" rx="2" ry="2" />
<text  x="1192.83" y="431.5" ></text>
</g>
<g >
<title>bc_dde (4,227,298 samples, 44.68%)</title><rect x="481.8" y="261" width="527.1" height="15.0" fill="rgb(230,94,94)" rx="2" ry="2" />
<text  x="484.78" y="271.5" >bc_dde</text>
</g>
<g >
<title>perf_event_mmap (82,264 samples, 0.87%)</title><rect x="285.3" y="149" width="10.2" height="15.0" fill="rgb(226,89,89)" rx="2" ry="2" />
<text  x="288.29" y="159.5" ></text>
</g>
<g >
<title>bc_dde (3,383,290 samples, 35.76%)</title><rect x="587.0" y="245" width="421.9" height="15.0" fill="rgb(230,94,94)" rx="2" ry="2" />
<text  x="590.03" y="255.5" >bc_dde</text>
</g>
<g >
<title>perf_ibs_start (1,317 samples, 0.01%)</title><rect x="88.9" y="117" width="0.2" height="15.0" fill="rgb(201,51,51)" rx="2" ry="2" />
<text  x="91.90" y="127.5" ></text>
</g>
<g >
<title>filemap_get_pages (568,265 samples, 6.01%)</title><rect x="18.0" y="117" width="70.9" height="15.0" fill="rgb(212,68,68)" rx="2" ry="2" />
<text  x="21.04" y="127.5" >filemap_..</text>
</g>
<g >
<title>__filemap_get_folio_mpol (82,264 samples, 0.87%)</title><rect x="285.3" y="53" width="10.2" height="15.0" fill="rgb(222,82,82)" rx="2" ry="2" />
<text  x="288.29" y="63.5" ></text>
</g>
<g >
<title>event_sched_in (1,317 samples, 0.01%)</title><rect x="88.9" y="149" width="0.2" height="15.0" fill="rgb(213,70,70)" rx="2" ry="2" />
<text  x="91.90" y="159.5" ></text>
</g>
<g >
<title>entry_SYSCALL_64_after_hwframe (90,559 samples, 0.96%)</title><rect x="284.3" y="389" width="11.2" height="15.0" fill="rgb(215,72,72)" rx="2" ry="2" />
<text  x="287.25" y="399.5" ></text>
</g>
<g >
<title>perf_event_enable_on_exec (1,330 samples, 0.01%)</title><rect x="1189.8" y="213" width="0.2" height="15.0" fill="rgb(238,106,106)" rx="2" ry="2" />
<text  x="1192.83" y="223.5" ></text>
</g>
<g >
<title>perf_event_exec (1,330 samples, 0.01%)</title><rect x="1189.8" y="229" width="0.2" height="15.0" fill="rgb(214,71,71)" rx="2" ry="2" />
<text  x="1192.83" y="239.5" ></text>
</g>
<g >
<title>perf_event_comm (8,295 samples, 0.09%)</title><rect x="284.3" y="213" width="1.0" height="15.0" fill="rgb(219,78,78)" rx="2" ry="2" />
<text  x="287.25" y="223.5" ></text>
</g>
<g >
<title>perf_output_begin (8,295 samples, 0.09%)</title><rect x="284.3" y="133" width="1.0" height="15.0" fill="rgb(221,80,80)" rx="2" ry="2" />
<text  x="287.25" y="143.5" ></text>
</g>
<g >
<title>all (9,462,207 samples, 100%)</title><rect x="10.0" y="437" width="1180.0" height="15.0" fill="rgb(209,63,63)" rx="2" ry="2" />
<text  x="13.00" y="447.5" ></text>
</g>
<g >
<title>vm_mmap (82,264 samples, 0.87%)</title><rect x="285.3" y="229" width="10.2" height="15.0" fill="rgb(222,82,82)" rx="2" ry="2" />
<text  x="288.29" y="239.5" ></text>
</g>
<g >
<title>entry_SYSCALL_64_after_hwframe (568,265 samples, 6.01%)</title><rect x="18.0" y="261" width="70.9" height="15.0" fill="rgb(215,72,72)" rx="2" ry="2" />
<text  x="21.04" y="271.5" >entry_SY..</text>
</g>
<g >
<title>_Construct&lt;std::vector&lt;double&gt;, const std::vector&lt;double, std::allocator&lt;double&gt; &gt;&amp;&gt; (726,657 samples, 7.68%)</title><rect x="1099.2" y="229" width="90.6" height="15.0" fill="rgb(194,194,57)" rx="2" ry="2" />
<text  x="1102.22" y="239.5" >_Construct..</text>
</g>
<g >
<title>ksys_read (568,265 samples, 6.01%)</title><rect x="18.0" y="197" width="70.9" height="15.0" fill="rgb(227,89,89)" rx="2" ry="2" />
<text  x="21.04" y="207.5" >ksys_read</text>
</g>
<g >
<title>vma_complete (298,955 samples, 3.16%)</title><rect x="89.1" y="181" width="37.2" height="15.0" fill="rgb(217,75,75)" rx="2" ry="2" />
<text  x="92.07" y="191.5" >vma..</text>
</g>
<g >
<title>asm_exc_page_fault (1,266,222 samples, 13.38%)</title><rect x="126.3" y="325" width="158.0" height="15.0" fill="rgb(222,82,82)" rx="2" ry="2" />
<text  x="129.35" y="335.5" >asm_exc_page_fault</text>
</g>
<g >
<title>merge_sched_in (1,330 samples, 0.01%)</title><rect x="1189.8" y="133" width="0.2" height="15.0" fill="rgb(231,96,96)" rx="2" ry="2" />
<text  x="1192.83" y="143.5" ></text>
</g>
<g >
<title>perf_event_sched_in (1,330 samples, 0.01%)</title><rect x="1189.8" y="181" width="0.2" height="15.0" fill="rgb(230,94,94)" rx="2" ry="2" />
<text  x="1192.83" y="191.5" ></text>
</g>
<g >
<title>bprm_execve.part.0 (90,559 samples, 0.96%)</title><rect x="284.3" y="293" width="11.2" height="15.0" fill="rgb(225,86,86)" rx="2" ry="2" />
<text  x="287.25" y="303.5" ></text>
</g>
<g >
<title>DDEInt&lt;&amp; (7,171,117 samples, 75.79%)</title><rect x="295.5" y="341" width="894.3" height="15.0" fill="rgb(221,81,81)" rx="2" ry="2" />
<text  x="298.55" y="351.5" >DDEInt&lt;&amp;</text>
</g>
<g >
<title>std::vector&lt;double, std::allocator&lt;double&gt; &gt;* std::uninitialized_fill_n&lt;std::vector&lt;double, std::allocator&lt;double&gt; &gt;*, unsigned long, std::vector&lt;double, std::allocator&lt;double&gt; &gt; &gt; (726,657 samples, 7.68%)</title><rect x="1099.2" y="277" width="90.6" height="15.0" fill="rgb(186,186,54)" rx="2" ry="2" />
<text  x="1102.22" y="287.5" >std::vecto..</text>
</g>
<g >
<title>std::vector&lt;std::vector&lt;double, std::allocator&lt;double&gt; &gt;, std::allocator&lt;std::vector&lt;double, std::allocator&lt;double&gt; &gt; &gt; &gt;::_M_fill_insert (726,657 samples, 7.68%)</title><rect x="1099.2" y="309" width="90.6" height="15.0" fill="rgb(187,187,54)" rx="2" ry="2" />
<text  x="1102.22" y="319.5" >std::vecto..</text>
</g>
<g >
<title>visit_groups_merge.constprop.0.isra.0 (1,330 samples, 0.01%)</title><rect x="1189.8" y="149" width="0.2" height="15.0" fill="rgb(216,74,74)" rx="2" ry="2" />
<text  x="1192.83" y="159.5" ></text>
</g>
<g >
<title>exec_binprm (90,559 samples, 0.96%)</title><rect x="284.3" y="277" width="11.2" height="15.0" fill="rgb(243,112,112)" rx="2" ry="2" />
<text  x="287.25" y="287.5" ></text>
</g>
<g >
<title>sysvec_reschedule_ipi (1,317 samples, 0.01%)</title><rect x="88.9" y="309" width="0.2" height="15.0" fill="rgb(235,101,101)" rx="2" ry="2" />
<text  x="91.90" y="319.5" ></text>
</g>
<g >
<title>__handle_mm_fault (1,266,222 samples, 13.38%)</title><rect x="126.3" y="261" width="158.0" height="15.0" fill="rgb(202,53,53)" rx="2" ry="2" />
<text  x="129.35" y="271.5" >__handle_mm_fault</text>
</g>
<g >
<title>x64_sys_call (1,330 samples, 0.01%)</title><rect x="1189.8" y="357" width="0.2" height="15.0" fill="rgb(246,117,117)" rx="2" ry="2" />
<text  x="1192.83" y="367.5" ></text>
</g>
<g >
<title>__x64_sys_mprotect (298,955 samples, 3.16%)</title><rect x="89.1" y="277" width="37.2" height="15.0" fill="rgb(205,57,57)" rx="2" ry="2" />
<text  x="92.07" y="287.5" >__x..</text>
</g>
<g >
<title>DDEInt&lt;&amp; (6,444,460 samples, 68.11%)</title><rect x="295.5" y="325" width="803.7" height="15.0" fill="rgb(221,81,81)" rx="2" ry="2" />
<text  x="298.55" y="335.5" >DDEInt&lt;&amp;</text>
</g>
<g >
<title>xas_find (1,266,222 samples, 13.38%)</title><rect x="126.3" y="165" width="158.0" height="15.0" fill="rgb(207,60,60)" rx="2" ry="2" />
<text  x="129.35" y="175.5" >xas_find</text>
</g>
<g >
<title>History&lt;double, double&gt;::save (723,831 samples, 7.65%)</title><rect x="1008.9" y="293" width="90.3" height="15.0" fill="rgb(198,198,58)" rx="2" ry="2" />
<text  x="1011.95" y="303.5" >History&lt;do..</text>
</g>
<g >
<title>do_syscall_64 (1,330 samples, 0.01%)</title><rect x="1189.8" y="373" width="0.2" height="15.0" fill="rgb(204,57,57)" rx="2" ry="2" />
<text  x="1192.83" y="383.5" ></text>
</g>
<g >
<title>__mmap_region (82,264 samples, 0.87%)</title><rect x="285.3" y="165" width="10.2" height="15.0" fill="rgb(253,128,128)" rx="2" ry="2" />
<text  x="288.29" y="175.5" ></text>
</g>
<g >
<title>[unknown] (1,330 samples, 0.01%)</title><rect x="1189.8" y="405" width="0.2" height="15.0" fill="rgb(205,58,58)" rx="2" ry="2" />
<text  x="1192.83" y="415.5" ></text>
</g>
<g >
<title>schedule (1,317 samples, 0.01%)</title><rect x="88.9" y="277" width="0.2" height="15.0" fill="rgb(254,129,129)" rx="2" ry="2" />
<text  x="91.90" y="287.5" ></text>
</g>
<g >
<title>bprm_execve (1,330 samples, 0.01%)</title><rect x="1189.8" y="309" width="0.2" height="15.0" fill="rgb(214,71,71)" rx="2" ry="2" />
<text  x="1192.83" y="319.5" ></text>
</g>
<g >
<title>mprotect_fixup (298,955 samples, 3.16%)</title><rect x="89.1" y="245" width="37.2" height="15.0" fill="rgb(234,100,100)" rx="2" ry="2" />
<text  x="92.07" y="255.5" >mpr..</text>
</g>
<g >
<title>do_mmap (82,264 samples, 0.87%)</title><rect x="285.3" y="197" width="10.2" height="15.0" fill="rgb(225,87,87)" rx="2" ry="2" />
<text  x="288.29" y="207.5" ></text>
</g>
<g >
<title>bc_dde (761,098 samples, 8.04%)</title><rect x="295.5" y="277" width="95.0" height="15.0" fill="rgb(230,94,94)" rx="2" ry="2" />
<text  x="298.55" y="287.5" >bc_dde</text>
</g>
<g >
<title>RingBuffer&lt;std::array&lt;double, 2ul&gt; &gt;::operator[] (766,611 samples, 8.10%)</title><rect x="913.3" y="213" width="95.6" height="15.0" fill="rgb(220,220,66)" rx="2" ry="2" />
<text  x="916.35" y="223.5" >RingBuffer&lt;..</text>
</g>
<g >
<title>freader_fetch (82,264 samples, 0.87%)</title><rect x="285.3" y="85" width="10.2" height="15.0" fill="rgb(214,71,71)" rx="2" ry="2" />
<text  x="288.29" y="95.5" ></text>
</g>
<g >
<title>elf_load (82,264 samples, 0.87%)</title><rect x="285.3" y="245" width="10.2" height="15.0" fill="rgb(253,127,127)" rx="2" ry="2" />
<text  x="288.29" y="255.5" ></text>
</g>
<g >
<title>CompoundRingBuffer&lt;std::array&lt;double, 2ul&gt;, double&gt;::update (723,831 samples, 7.65%)</title><rect x="1008.9" y="277" width="90.3" height="15.0" fill="rgb(221,221,66)" rx="2" ry="2" />
<text  x="1011.95" y="287.5" >CompoundRi..</text>
</g>
<g >
<title>next_uptodate_folio (1,266,222 samples, 13.38%)</title><rect x="126.3" y="181" width="158.0" height="15.0" fill="rgb(204,57,57)" rx="2" ry="2" />
<text  x="129.35" y="191.5" >next_uptodate_folio</text>
</g>
<g >
<title>do_mprotect_pkey (298,955 samples, 3.16%)</title><rect x="89.1" y="261" width="37.2" height="15.0" fill="rgb(252,126,126)" rx="2" ry="2" />
<text  x="92.07" y="271.5" >do_..</text>
</g>
<g >
<title>filemap_read (568,265 samples, 6.01%)</title><rect x="18.0" y="133" width="70.9" height="15.0" fill="rgb(246,116,116)" rx="2" ry="2" />
<text  x="21.04" y="143.5" >filemap_..</text>
</g>
<g >
<title>History&lt;double, double&gt;::at_time (3,383,290 samples, 35.76%)</title><rect x="587.0" y="229" width="421.9" height="15.0" fill="rgb(209,209,62)" rx="2" ry="2" />
<text  x="590.03" y="239.5" >History&lt;double, double&gt;::at_time</text>
</g>
<g >
<title>RingBuffer&lt;std::array&lt;double, 2ul&gt; &gt;::operator[] (2,616,679 samples, 27.65%)</title><rect x="587.0" y="197" width="326.3" height="15.0" fill="rgb(220,220,66)" rx="2" ry="2" />
<text  x="590.03" y="207.5" >RingBuffer&lt;std::array&lt;double, 2ul&gt; &gt;::operat..</text>
</g>
<g >
<title>ext4_file_read_iter (568,265 samples, 6.01%)</title><rect x="18.0" y="165" width="70.9" height="15.0" fill="rgb(243,112,112)" rx="2" ry="2" />
<text  x="21.04" y="175.5" >ext4_fil..</text>
</g>
<g >
<title>vma_modify (298,955 samples, 3.16%)</title><rect x="89.1" y="213" width="37.2" height="15.0" fill="rgb(217,75,75)" rx="2" ry="2" />
<text  x="92.07" y="223.5" >vma..</text>
</g>
<g >
<title>perf_event_sched_in (1,317 samples, 0.01%)</title><rect x="88.9" y="213" width="0.2" height="15.0" fill="rgb(230,94,94)" rx="2" ry="2" />
<text  x="91.90" y="223.5" ></text>
</g>
<g >
<title>x64_sys_call (298,955 samples, 3.16%)</title><rect x="89.1" y="293" width="37.2" height="15.0" fill="rgb(246,117,117)" rx="2" ry="2" />
<text  x="92.07" y="303.5" >x64..</text>
</g>
<g >
<title>bc_model (9,460,877 samples, 99.99%)</title><rect x="10.0" y="421" width="1179.8" height="15.0" fill="rgb(205,57,57)" rx="2" ry="2" />
<text  x="13.00" y="431.5" >bc_model</text>
</g>
<g >
<title>DoPri_5&lt;&amp; (4,959,531 samples, 52.41%)</title><rect x="390.5" y="293" width="618.4" height="15.0" fill="rgb(234,100,100)" rx="2" ry="2" />
<text  x="393.46" y="303.5" >DoPri_5&lt;&amp;</text>
</g>
<g >
<title>[libc.so.6] (7,171,117 samples, 75.79%)</title><rect x="295.5" y="373" width="894.3" height="15.0" fill="rgb(220,79,79)" rx="2" ry="2" />
<text  x="298.55" y="383.5" >[libc.so.6]</text>
</g>
<g >
<title>perf_event_mmap_event (82,264 samples, 0.87%)</title><rect x="285.3" y="133" width="10.2" height="15.0" fill="rgb(236,103,103)" rx="2" ry="2" />
<text  x="288.29" y="143.5" ></text>
</g>
<g >
<title>__split_vma (298,955 samples, 3.16%)</title><rect x="89.1" y="197" width="37.2" height="15.0" fill="rgb(236,102,102)" rx="2" ry="2" />
<text  x="92.07" y="207.5" >__s..</text>
</g>
<g >
<title>begin_new_exec (8,295 samples, 0.09%)</title><rect x="284.3" y="245" width="1.0" height="15.0" fill="rgb(244,114,114)" rx="2" ry="2" />
<text  x="287.25" y="255.5" ></text>
</g>
<g >
<title>ctx_sched_in (1,317 samples, 0.01%)</title><rect x="88.9" y="197" width="0.2" height="15.0" fill="rgb(228,90,90)" rx="2" ry="2" />
<text  x="91.90" y="207.5" ></text>
</g>
<g >
<title>build_id_parse_nofault (82,264 samples, 0.87%)</title><rect x="285.3" y="117" width="10.2" height="15.0" fill="rgb(237,105,105)" rx="2" ry="2" />
<text  x="288.29" y="127.5" ></text>
</g>
<g >
<title>finish_task_switch.isra.0 (1,317 samples, 0.01%)</title><rect x="88.9" y="245" width="0.2" height="15.0" fill="rgb(245,115,115)" rx="2" ry="2" />
<text  x="91.90" y="255.5" ></text>
</g>
<g >
<title>[ld-linux-x86-64.so.2] (568,265 samples, 6.01%)</title><rect x="18.0" y="309" width="70.9" height="15.0" fill="rgb(242,112,112)" rx="2" ry="2" />
<text  x="21.04" y="319.5" >[ld-linu..</text>
</g>
<g >
<title>__set_task_comm (8,295 samples, 0.09%)</title><rect x="284.3" y="229" width="1.0" height="15.0" fill="rgb(237,104,104)" rx="2" ry="2" />
<text  x="287.25" y="239.5" ></text>
</g>
<g >
<title>exec_binprm (1,330 samples, 0.01%)</title><rect x="1189.8" y="277" width="0.2" height="15.0" fill="rgb(243,112,112)" rx="2" ry="2" />
<text  x="1192.83" y="287.5" ></text>
</g>
<g >
<title>std::vector&lt;std::vector&lt;double, std::allocator&lt;double&gt; &gt;, std::allocator&lt;std::vector&lt;double, std::allocator&lt;double&gt; &gt; &gt; &gt;::resize (726,657 samples, 7.68%)</title><rect x="1099.2" y="325" width="90.6" height="15.0" fill="rgb(176,176,50)" rx="2" ry="2" />
<text  x="1102.22" y="335.5" >std::vecto..</text>
</g>
<g >
<title>x64_sys_call (90,559 samples, 0.96%)</title><rect x="284.3" y="357" width="11.2" height="15.0" fill="rgb(246,117,117)" rx="2" ry="2" />
<text  x="287.25" y="367.5" ></text>
</g>
<g >
<title>[ld-linux-x86-64.so.2] (57,409 samples, 0.61%)</title><rect x="10.9" y="309" width="7.1" height="15.0" fill="rgb(242,112,112)" rx="2" ry="2" />
<text  x="13.88" y="319.5" ></text>
</g>
</g>
</svg>
