<?xml version="1.0" standalone="no"?>
<!DOCTYPE svg PUBLIC "-//W3C//DTD SVG 1.1//EN" "http://www.w3.org/Graphics/SVG/1.1/DTD/svg11.dtd">
<svg version="1.1" width="1200" height="630" onload="init(evt)" viewBox="0 0 1200 630" xmlns="http://www.w3.org/2000/svg" xmlns:xlink="http://www.w3.org/1999/xlink">
<!-- Flame graph stack visualization. See https://github.com/brendangregg/FlameGraph for latest version, and http://www.brendangregg.com/flamegraphs.html for examples. -->
<!-- NOTES:  -->
<defs>
	<linearGradient id="background" y1="0" y2="1" x1="0" x2="0" >
		<stop stop-color="#eeeeee" offset="5%" />
		<stop stop-color="#eeeeb0" offset="95%" />
	</linearGradient>
</defs>
<style type="text/css">
	text { font-family:Verdana; font-size:12px; fill:rgb(0,0,0); }
	#search, #ignorecase { opacity:0.1; cursor:pointer; }
	#search:hover, #search.show, #ignorecase:hover, #ignorecase.show { opacity:1; }
	#subtitle { text-anchor:middle; font-color:rgb(160,160,160); }
	#title { text-anchor:middle; font-size:17px}
	#unzoom { cursor:pointer; }
	#frames > *:hover { stroke:black; stroke-width:0.5; cursor:pointer; }
	.hide { display:none; }
	.parent { opacity:0.5; }
</style>
<script type="text/ecmascript">
<![CDATA[
	"use strict";
	var details, searchbtn, unzoombtn, matchedtxt, svg, searching, currentSearchTerm, ignorecase, ignorecaseBtn;
	function init(evt) {
		details = document.getElementById("details").firstChild;
		searchbtn = document.getElementById("search");
		ignorecaseBtn = document.getElementById("ignorecase");
		unzoombtn = document.getElementById("unzoom");
		matchedtxt = document.getElementById("matched");
		svg = document.getElementsByTagName("svg")[0];
		searching = 0;
		currentSearchTerm = null;

		// use GET parameters to restore a flamegraphs state.
		var params = get_params();
		if (params.x && params.y)
			zoom(find_group(document.querySelector('[x="' + params.x + '"][y="' + params.y + '"]')));
                if (params.s) search(params.s);
	}

	// event listeners
	window.addEventListener("click", function(e) {
		var target = find_group(e.target);
		if (target) {
			if (target.nodeName == "a") {
				if (e.ctrlKey === false) return;
				e.preventDefault();
			}
			if (target.classList.contains("parent")) unzoom(true);
			zoom(target);
			if (!document.querySelector('.parent')) {
				// we have basically done a clearzoom so clear the url
				var params = get_params();
				if (params.x) delete params.x;
				if (params.y) delete params.y;
				history.replaceState(null, null, parse_params(params));
				unzoombtn.classList.add("hide");
				return;
			}

			// set parameters for zoom state
			var el = target.querySelector("rect");
			if (el && el.attributes && el.attributes.y && el.attributes._orig_x) {
				var params = get_params()
				params.x = el.attributes._orig_x.value;
				params.y = el.attributes.y.value;
				history.replaceState(null, null, parse_params(params));
			}
		}
		else if (e.target.id == "unzoom") clearzoom();
		else if (e.target.id == "search") search_prompt();
		else if (e.target.id == "ignorecase") toggle_ignorecase();
	}, false)

	// mouse-over for info
	// show
	window.addEventListener("mouseover", function(e) {
		var target = find_group(e.target);
		if (target) details.nodeValue = "Function: " + g_to_text(target);
	}, false)

	// clear
	window.addEventListener("mouseout", function(e) {
		var target = find_group(e.target);
		if (target) details.nodeValue = ' ';
	}, false)

	// ctrl-F for search
	// ctrl-I to toggle case-sensitive search
	window.addEventListener("keydown",function (e) {
		if (e.keyCode === 114 || (e.ctrlKey && e.keyCode === 70)) {
			e.preventDefault();
			search_prompt();
		}
		else if (e.ctrlKey && e.keyCode === 73) {
			e.preventDefault();
			toggle_ignorecase();
		}
	}, false)

	// functions
	function get_params() {
		var params = {};
		var paramsarr = window.location.search.substr(1).split('&');
		for (var i = 0; i < paramsarr.length; ++i) {
			var tmp = paramsarr[i].split("=");
			if (!tmp[0] || !tmp[1]) continue;
			params[tmp[0]]  = decodeURIComponent(tmp[1]);
		}
		return params;
	}
	function parse_params(params) {
		var uri = "?";
		for (var key in params) {
			uri += key + '=' + encodeURIComponent(params[key]) + '&';
		}
		if (uri.slice(-1) == "&")
			uri = uri.substring(0, uri.length - 1);
		if (uri == '?')
			uri = window.location.href.split('?')[0];
		return uri;
	}
	function find_child(node, selector) {
		var children = node.querySelectorAll(selector);
		if (children.length) return children[0];
	}
	function find_group(node) {
		var parent = node.parentElement;
		if (!parent) return;
		if (parent.id == "frames") return node;
		return find_group(parent);
	}
	function orig_save(e, attr, val) {
		if (e.attributes["_orig_" + attr] != undefined) return;
		if (e.attributes[attr] == undefined) return;
		if (val == undefined) val = e.attributes[attr].value;
		e.setAttribute("_orig_" + attr, val);
	}
	function orig_load(e, attr) {
		if (e.attributes["_orig_"+attr] == undefined) return;
		e.attributes[attr].value = e.attributes["_orig_" + attr].value;
		e.removeAttribute("_orig_"+attr);
	}
	function g_to_text(e) {
		var text = find_child(e, "title").firstChild.nodeValue;
		return (text)
	}
	function g_to_func(e) {
		var func = g_to_text(e);
		// if there's any manipulation we want to do to the function
		// name before it's searched, do it here before returning.
		return (func);
	}
	function update_text(e) {
		var r = find_child(e, "rect");
		var t = find_child(e, "text");
		var w = parseFloat(r.attributes.width.value) -3;
		var txt = find_child(e, "title").textContent.replace(/\([^(]*\)$/,"");
		t.attributes.x.value = parseFloat(r.attributes.x.value) + 3;

		// Smaller than this size won't fit anything
		if (w < 2 * 12 * 0.59) {
			t.textContent = "";
			return;
		}

		t.textContent = txt;
		var sl = t.getSubStringLength(0, txt.length);
		// check if only whitespace or if we can fit the entire string into width w
		if (/^ *$/.test(txt) || sl < w)
			return;

		// this isn't perfect, but gives a good starting point
		// and avoids calling getSubStringLength too often
		var start = Math.floor((w/sl) * txt.length);
		for (var x = start; x > 0; x = x-2) {
			if (t.getSubStringLength(0, x + 2) <= w) {
				t.textContent = txt.substring(0, x) + "..";
				return;
			}
		}
		t.textContent = "";
	}

	// zoom
	function zoom_reset(e) {
		if (e.attributes != undefined) {
			orig_load(e, "x");
			orig_load(e, "width");
		}
		if (e.childNodes == undefined) return;
		for (var i = 0, c = e.childNodes; i < c.length; i++) {
			zoom_reset(c[i]);
		}
	}
	function zoom_child(e, x, ratio) {
		if (e.attributes != undefined) {
			if (e.attributes.x != undefined) {
				orig_save(e, "x");
				e.attributes.x.value = (parseFloat(e.attributes.x.value) - x - 10) * ratio + 10;
				if (e.tagName == "text")
					e.attributes.x.value = find_child(e.parentNode, "rect[x]").attributes.x.value + 3;
			}
			if (e.attributes.width != undefined) {
				orig_save(e, "width");
				e.attributes.width.value = parseFloat(e.attributes.width.value) * ratio;
			}
		}

		if (e.childNodes == undefined) return;
		for (var i = 0, c = e.childNodes; i < c.length; i++) {
			zoom_child(c[i], x - 10, ratio);
		}
	}
	function zoom_parent(e) {
		if (e.attributes) {
			if (e.attributes.x != undefined) {
				orig_save(e, "x");
				e.attributes.x.value = 10;
			}
			if (e.attributes.width != undefined) {
				orig_save(e, "width");
				e.attributes.width.value = parseInt(svg.width.baseVal.value) - (10 * 2);
			}
		}
		if (e.childNodes == undefined) return;
		for (var i = 0, c = e.childNodes; i < c.length; i++) {
			zoom_parent(c[i]);
		}
	}
	function zoom(node) {
		var attr = find_child(node, "rect").attributes;
		var width = parseFloat(attr.width.value);
		var xmin = parseFloat(attr.x.value);
		var xmax = parseFloat(xmin + width);
		var ymin = parseFloat(attr.y.value);
		var ratio = (svg.width.baseVal.value - 2 * 10) / width;

		// XXX: Workaround for JavaScript float issues (fix me)
		var fudge = 0.0001;

		unzoombtn.classList.remove("hide");

		var el = document.getElementById("frames").children;
		for (var i = 0; i < el.length; i++) {
			var e = el[i];
			var a = find_child(e, "rect").attributes;
			var ex = parseFloat(a.x.value);
			var ew = parseFloat(a.width.value);
			var upstack;
			// Is it an ancestor
			if (0 == 0) {
				upstack = parseFloat(a.y.value) > ymin;
			} else {
				upstack = parseFloat(a.y.value) < ymin;
			}
			if (upstack) {
				// Direct ancestor
				if (ex <= xmin && (ex+ew+fudge) >= xmax) {
					e.classList.add("parent");
					zoom_parent(e);
					update_text(e);
				}
				// not in current path
				else
					e.classList.add("hide");
			}
			// Children maybe
			else {
				// no common path
				if (ex < xmin || ex + fudge >= xmax) {
					e.classList.add("hide");
				}
				else {
					zoom_child(e, xmin, ratio);
					update_text(e);
				}
			}
		}
		search();
	}
	function unzoom(dont_update_text) {
		unzoombtn.classList.add("hide");
		var el = document.getElementById("frames").children;
		for(var i = 0; i < el.length; i++) {
			el[i].classList.remove("parent");
			el[i].classList.remove("hide");
			zoom_reset(el[i]);
			if(!dont_update_text) update_text(el[i]);
		}
		search();
	}
	function clearzoom() {
		unzoom();

		// remove zoom state
		var params = get_params();
		if (params.x) delete params.x;
		if (params.y) delete params.y;
		history.replaceState(null, null, parse_params(params));
	}

	// search
	function toggle_ignorecase() {
		ignorecase = !ignorecase;
		if (ignorecase) {
			ignorecaseBtn.classList.add("show");
		} else {
			ignorecaseBtn.classList.remove("show");
		}
		reset_search();
		search();
	}
	function reset_search() {
		var el = document.querySelectorAll("#frames rect");
		for (var i = 0; i < el.length; i++) {
			orig_load(el[i], "fill")
		}
		var params = get_params();
		delete params.s;
		history.replaceState(null, null, parse_params(params));
	}
	function search_prompt() {
		if (!searching) {
			var term = prompt("Enter a search term (regexp " +
			    "allowed, eg: ^ext4_)"
			    + (ignorecase ? ", ignoring case" : "")
			    + "\nPress Ctrl-i to toggle case sensitivity", "");
			if (term != null) search(term);
		} else {
			reset_search();
			searching = 0;
			currentSearchTerm = null;
			searchbtn.classList.remove("show");
			searchbtn.firstChild.nodeValue = "Search"
			matchedtxt.classList.add("hide");
			matchedtxt.firstChild.nodeValue = ""
		}
	}
	function search(term) {
		if (term) currentSearchTerm = term;

		var re = new RegExp(currentSearchTerm, ignorecase ? 'i' : '');
		var el = document.getElementById("frames").children;
		var matches = new Object();
		var maxwidth = 0;
		for (var i = 0; i < el.length; i++) {
			var e = el[i];
			var func = g_to_func(e);
			var rect = find_child(e, "rect");
			if (func == null || rect == null)
				continue;

			// Save max width. Only works as we have a root frame
			var w = parseFloat(rect.attributes.width.value);
			if (w > maxwidth)
				maxwidth = w;

			if (func.match(re)) {
				// highlight
				var x = parseFloat(rect.attributes.x.value);
				orig_save(rect, "fill");
				rect.attributes.fill.value = "rgb(230,0,230)";

				// remember matches
				if (matches[x] == undefined) {
					matches[x] = w;
				} else {
					if (w > matches[x]) {
						// overwrite with parent
						matches[x] = w;
					}
				}
				searching = 1;
			}
		}
		if (!searching)
			return;
		var params = get_params();
		params.s = currentSearchTerm;
		history.replaceState(null, null, parse_params(params));

		searchbtn.classList.add("show");
		searchbtn.firstChild.nodeValue = "Reset Search";

		// calculate percent matched, excluding vertical overlap
		var count = 0;
		var lastx = -1;
		var lastw = 0;
		var keys = Array();
		for (k in matches) {
			if (matches.hasOwnProperty(k))
				keys.push(k);
		}
		// sort the matched frames by their x location
		// ascending, then width descending
		keys.sort(function(a, b){
			return a - b;
		});
		// Step through frames saving only the biggest bottom-up frames
		// thanks to the sort order. This relies on the tree property
		// where children are always smaller than their parents.
		var fudge = 0.0001;	// JavaScript floating point
		for (var k in keys) {
			var x = parseFloat(keys[k]);
			var w = matches[keys[k]];
			if (x >= lastx + lastw - fudge) {
				count += w;
				lastx = x;
				lastw = w;
			}
		}
		// display matched percent
		matchedtxt.classList.remove("hide");
		var pct = 100 * count / maxwidth;
		if (pct != 100) pct = pct.toFixed(1)
		matchedtxt.firstChild.nodeValue = "Matched: " + pct + "%";
	}
]]>
</script>
<rect x="0.0" y="0" width="1200.0" height="630.0" fill="url(#background)"  />
<text id="title" x="600.00" y="24" >gi_model</text>
<text id="details" x="10.00" y="613" > </text>
<text id="unzoom" x="10.00" y="24" class="hide">Reset Zoom</text>
<text id="search" x="1090.00" y="24" >Search</text>
<text id="ignorecase" x="1174.00" y="24" >ic</text>
<text id="matched" x="1090.00" y="613" > </text>
<g id="frames">
<g >
<title>exec_binprm (7,241 samples, 0.04%)</title><rect x="1189.5" y="421" width="0.5" height="15.0" fill="rgb(243,112,112)" rx="2" ry="2" />
<text  x="1192.48" y="431.5" ></text>
</g>
<g >
<title>do_file_open (1,097,787 samples, 6.74%)</title><rect x="1031.0" y="277" width="79.5" height="15.0" fill="rgb(229,93,93)" rx="2" ry="2" />
<text  x="1033.98" y="287.5" >do_file_o..</text>
</g>
<g >
<title>x64_sys_call (126,357 samples, 0.78%)</title><rect x="236.8" y="501" width="9.1" height="15.0" fill="rgb(246,117,117)" rx="2" ry="2" />
<text  x="239.77" y="511.5" ></text>
</g>
<g >
<title>[libc.so.6] (1,090,325 samples, 6.69%)</title><rect x="1110.5" y="389" width="79.0" height="15.0" fill="rgb(220,79,79)" rx="2" ry="2" />
<text  x="1113.50" y="399.5" >[libc.so.6]</text>
</g>
<g >
<title>do_vmi_munmap (1,422 samples, 0.01%)</title><rect x="242.3" y="325" width="0.1" height="15.0" fill="rgb(253,127,127)" rx="2" ry="2" />
<text  x="245.31" y="335.5" ></text>
</g>
<g >
<title>std::__basic_file&lt;char&gt;::open (1,097,787 samples, 6.74%)</title><rect x="1031.0" y="437" width="79.5" height="15.0" fill="rgb(182,182,52)" rx="2" ry="2" />
<text  x="1033.98" y="447.5" >std::__ba..</text>
</g>
<g >
<title>std::basic_filebuf&lt;char, std::char_traits&lt;char&gt; &gt;::open (1,097,787 samples, 6.74%)</title><rect x="1031.0" y="453" width="79.5" height="15.0" fill="rgb(194,194,57)" rx="2" ry="2" />
<text  x="1033.98" y="463.5" >std::basi..</text>
</g>
<g >
<title>do_open (1,097,787 samples, 6.74%)</title><rect x="1031.0" y="245" width="79.5" height="15.0" fill="rgb(231,95,95)" rx="2" ry="2" />
<text  x="1033.98" y="255.5" >do_open</text>
</g>
<g >
<title>vm_munmap (1,422 samples, 0.01%)</title><rect x="242.3" y="357" width="0.1" height="15.0" fill="rgb(204,55,55)" rx="2" ry="2" />
<text  x="245.31" y="367.5" ></text>
</g>
<g >
<title>ksys_mmap_pgoff (494,879 samples, 3.04%)</title><rect x="99.5" y="325" width="35.9" height="15.0" fill="rgb(244,114,114)" rx="2" ry="2" />
<text  x="102.51" y="335.5" >ksy..</text>
</g>
<g >
<title>bprm_execve (126,357 samples, 0.78%)</title><rect x="236.8" y="453" width="9.1" height="15.0" fill="rgb(214,71,71)" rx="2" ry="2" />
<text  x="239.77" y="463.5" ></text>
</g>
<g >
<title>ext4_setattr (1,097,787 samples, 6.74%)</title><rect x="1031.0" y="197" width="79.5" height="15.0" fill="rgb(228,90,90)" rx="2" ry="2" />
<text  x="1033.98" y="207.5" >ext4_seta..</text>
</g>
<g >
<title>x64_sys_call (1,399,940 samples, 8.59%)</title><rect x="135.4" y="437" width="101.4" height="15.0" fill="rgb(246,117,117)" rx="2" ry="2" />
<text  x="138.36" y="447.5" >x64_sys_call</text>
</g>
<g >
<title>build_id_parse_nofault (1,399,940 samples, 8.59%)</title><rect x="135.4" y="341" width="101.4" height="15.0" fill="rgb(237,105,105)" rx="2" ry="2" />
<text  x="138.36" y="351.5" >build_id_par..</text>
</g>
<g >
<title>__x64_sys_mprotect (1,399,940 samples, 8.59%)</title><rect x="135.4" y="421" width="101.4" height="15.0" fill="rgb(205,57,57)" rx="2" ry="2" />
<text  x="138.36" y="431.5" >__x64_sys_mp..</text>
</g>
<g >
<title>elf_load (9,420 samples, 0.06%)</title><rect x="241.7" y="373" width="0.7" height="15.0" fill="rgb(253,127,127)" rx="2" ry="2" />
<text  x="244.73" y="383.5" ></text>
</g>
<g >
<title>__build_id_parse (1,399,940 samples, 8.59%)</title><rect x="135.4" y="325" width="101.4" height="15.0" fill="rgb(240,108,108)" rx="2" ry="2" />
<text  x="138.36" y="335.5" >__build_id_p..</text>
</g>
<g >
<title>History&lt;double, double&gt;::at_time (8,461,928 samples, 51.94%)</title><rect x="245.9" y="373" width="613.0" height="15.0" fill="rgb(209,209,62)" rx="2" ry="2" />
<text  x="248.92" y="383.5" >History&lt;double, double&gt;::at_time</text>
</g>
<g >
<title>[ld-linux-x86-64.so.2] (3,130,546 samples, 19.22%)</title><rect x="10.0" y="517" width="226.8" height="15.0" fill="rgb(242,112,112)" rx="2" ry="2" />
<text  x="13.00" y="527.5" >[ld-linux-x86-64.so.2]</text>
</g>
<g >
<title>std::function&lt;void  (1,127,397 samples, 6.92%)</title><rect x="858.9" y="453" width="81.6" height="15.0" fill="rgb(178,178,51)" rx="2" ry="2" />
<text  x="861.87" y="463.5" >std::func..</text>
</g>
<g >
<title>std::vector&lt;double, std::allocator&lt;double&gt; &gt;::operator= (1,248,594 samples, 7.66%)</title><rect x="940.5" y="453" width="90.5" height="15.0" fill="rgb(217,217,65)" rx="2" ry="2" />
<text  x="943.53" y="463.5" >std::vecto..</text>
</g>
<g >
<title>unlink_file_vma_batch_final (1,422 samples, 0.01%)</title><rect x="242.3" y="245" width="0.1" height="15.0" fill="rgb(240,109,109)" rx="2" ry="2" />
<text  x="245.31" y="255.5" ></text>
</g>
<g >
<title>do_mprotect_pkey (1,399,940 samples, 8.59%)</title><rect x="135.4" y="405" width="101.4" height="15.0" fill="rgb(252,126,126)" rx="2" ry="2" />
<text  x="138.36" y="415.5" >do_mprotect_..</text>
</g>
<g >
<title>DDEInt&lt;&amp; (10,837,919 samples, 66.53%)</title><rect x="245.9" y="469" width="785.1" height="15.0" fill="rgb(221,81,81)" rx="2" ry="2" />
<text  x="248.92" y="479.5" >DDEInt&lt;&amp;</text>
</g>
<g >
<title>vm_mmap (7,998 samples, 0.05%)</title><rect x="241.7" y="357" width="0.6" height="15.0" fill="rgb(222,82,82)" rx="2" ry="2" />
<text  x="244.73" y="367.5" ></text>
</g>
<g >
<title>entry_SYSCALL_64_after_hwframe (1,399,940 samples, 8.59%)</title><rect x="135.4" y="469" width="101.4" height="15.0" fill="rgb(215,72,72)" rx="2" ry="2" />
<text  x="138.36" y="479.5" >entry_SYSCAL..</text>
</g>
<g >
<title>DoPri_5&lt;&amp; (8,461,928 samples, 51.94%)</title><rect x="245.9" y="453" width="613.0" height="15.0" fill="rgb(234,100,100)" rx="2" ry="2" />
<text  x="248.92" y="463.5" >DoPri_5&lt;&amp;</text>
</g>
<g >
<title>[ld-linux-x86-64.so.2] (3,130,546 samples, 19.22%)</title><rect x="10.0" y="533" width="226.8" height="15.0" fill="rgb(242,112,112)" rx="2" ry="2" />
<text  x="13.00" y="543.5" >[ld-linux-x86-64.so.2]</text>
</g>
<g >
<title>perf_event_mmap (494,879 samples, 3.04%)</title><rect x="99.5" y="245" width="35.9" height="15.0" fill="rgb(226,89,89)" rx="2" ry="2" />
<text  x="102.51" y="255.5" >per..</text>
</g>
<g >
<title>load_elf_binary (126,357 samples, 0.78%)</title><rect x="236.8" y="405" width="9.1" height="15.0" fill="rgb(220,79,79)" rx="2" ry="2" />
<text  x="239.77" y="415.5" ></text>
</g>
<g >
<title>__x64_sys_openat (1,097,787 samples, 6.74%)</title><rect x="1031.0" y="309" width="79.5" height="15.0" fill="rgb(251,125,125)" rx="2" ry="2" />
<text  x="1033.98" y="319.5" >__x64_sys..</text>
</g>
<g >
<title>do_execveat_common.isra.0 (126,357 samples, 0.78%)</title><rect x="236.8" y="469" width="9.1" height="15.0" fill="rgb(229,92,92)" rx="2" ry="2" />
<text  x="239.77" y="479.5" ></text>
</g>
<g >
<title>__x64_sys_mmap (494,879 samples, 3.04%)</title><rect x="99.5" y="341" width="35.9" height="15.0" fill="rgb(219,78,78)" rx="2" ry="2" />
<text  x="102.51" y="351.5" >__x..</text>
</g>
<g >
<title>irqentry_exit (1,422 samples, 0.01%)</title><rect x="242.3" y="181" width="0.1" height="15.0" fill="rgb(215,73,73)" rx="2" ry="2" />
<text  x="245.31" y="191.5" ></text>
</g>
<g >
<title>__set_task_comm (6,009 samples, 0.04%)</title><rect x="1189.5" y="373" width="0.4" height="15.0" fill="rgb(237,104,104)" rx="2" ry="2" />
<text  x="1192.48" y="383.5" ></text>
</g>
<g >
<title>do_vmi_align_munmap (1,422 samples, 0.01%)</title><rect x="242.3" y="309" width="0.1" height="15.0" fill="rgb(207,60,60)" rx="2" ry="2" />
<text  x="245.31" y="319.5" ></text>
</g>
<g >
<title>gi_dde (8,461,928 samples, 51.94%)</title><rect x="245.9" y="389" width="613.0" height="15.0" fill="rgb(207,60,60)" rx="2" ry="2" />
<text  x="248.92" y="399.5" >gi_dde</text>
</g>
<g >
<title>sysvec_reschedule_ipi (1,422 samples, 0.01%)</title><rect x="242.3" y="197" width="0.1" height="15.0" fill="rgb(235,101,101)" rx="2" ry="2" />
<text  x="245.31" y="207.5" ></text>
</g>
<g >
<title>asm_sysvec_reschedule_ipi (1,422 samples, 0.01%)</title><rect x="242.3" y="213" width="0.1" height="15.0" fill="rgb(249,121,121)" rx="2" ry="2" />
<text  x="245.31" y="223.5" ></text>
</g>
<g >
<title>mprotect_fixup (1,399,940 samples, 8.59%)</title><rect x="135.4" y="389" width="101.4" height="15.0" fill="rgb(234,100,100)" rx="2" ry="2" />
<text  x="138.36" y="399.5" >mprotect_fixup</text>
</g>
<g >
<title>do_mmap (494,879 samples, 3.04%)</title><rect x="99.5" y="293" width="35.9" height="15.0" fill="rgb(225,87,87)" rx="2" ry="2" />
<text  x="102.51" y="303.5" >do_..</text>
</g>
<g >
<title>bprm_execve.part.0 (7,241 samples, 0.04%)</title><rect x="1189.5" y="437" width="0.5" height="15.0" fill="rgb(225,86,86)" rx="2" ry="2" />
<text  x="1192.48" y="447.5" ></text>
</g>
<g >
<title>[libc.so.6] (1,090,325 samples, 6.69%)</title><rect x="1110.5" y="421" width="79.0" height="15.0" fill="rgb(220,79,79)" rx="2" ry="2" />
<text  x="1113.50" y="431.5" >[libc.so.6]</text>
</g>
<g >
<title>ext4_truncate (1,097,787 samples, 6.74%)</title><rect x="1031.0" y="181" width="79.5" height="15.0" fill="rgb(213,68,68)" rx="2" ry="2" />
<text  x="1033.98" y="191.5" >ext4_trun..</text>
</g>
<g >
<title>[ld-linux-x86-64.so.2] (494,879 samples, 3.04%)</title><rect x="99.5" y="405" width="35.9" height="15.0" fill="rgb(242,112,112)" rx="2" ry="2" />
<text  x="102.51" y="415.5" >[ld..</text>
</g>
<g >
<title>__perf_event_task_sched_in (1,422 samples, 0.01%)</title><rect x="242.3" y="101" width="0.1" height="15.0" fill="rgb(229,92,92)" rx="2" ry="2" />
<text  x="245.31" y="111.5" ></text>
</g>
<g >
<title>std::vector&lt;double, std::allocator&lt;double&gt; &gt;::_M_move_assign (1,248,594 samples, 7.66%)</title><rect x="940.5" y="437" width="90.5" height="15.0" fill="rgb(175,175,50)" rx="2" ry="2" />
<text  x="943.53" y="447.5" >std::vecto..</text>
</g>
<g >
<title>perf_event_mmap_event (1,399,940 samples, 8.59%)</title><rect x="135.4" y="357" width="101.4" height="15.0" fill="rgb(236,103,103)" rx="2" ry="2" />
<text  x="138.36" y="367.5" >perf_event_m..</text>
</g>
<g >
<title>all (16,290,175 samples, 100%)</title><rect x="10.0" y="581" width="1180.0" height="15.0" fill="rgb(209,63,63)" rx="2" ry="2" />
<text  x="13.00" y="591.5" ></text>
</g>
<g >
<title>notify_change (1,097,787 samples, 6.74%)</title><rect x="1031.0" y="213" width="79.5" height="15.0" fill="rgb(235,102,102)" rx="2" ry="2" />
<text  x="1033.98" y="223.5" >notify_ch..</text>
</g>
<g >
<title>std::basic_ofstream&lt;char, std::char_traits&lt;char&gt; &gt;::basic_ofstream&lt;std::filesystem::__cxx11::path, std::filesystem::__cxx11::path&gt; (1,097,787 samples, 6.74%)</title><rect x="1031.0" y="485" width="79.5" height="15.0" fill="rgb(208,208,62)" rx="2" ry="2" />
<text  x="1033.98" y="495.5" >std::basi..</text>
</g>
<g >
<title>_IO_file_open (1,097,787 samples, 6.74%)</title><rect x="1031.0" y="389" width="79.5" height="15.0" fill="rgb(249,121,121)" rx="2" ry="2" />
<text  x="1033.98" y="399.5" >_IO_file_..</text>
</g>
<g >
<title>ext4_ext_truncate (1,097,787 samples, 6.74%)</title><rect x="1031.0" y="165" width="79.5" height="15.0" fill="rgb(223,83,83)" rx="2" ry="2" />
<text  x="1033.98" y="175.5" >ext4_ext_..</text>
</g>
<g >
<title>do_syscall_64 (1,097,787 samples, 6.74%)</title><rect x="1031.0" y="341" width="79.5" height="15.0" fill="rgb(204,57,57)" rx="2" ry="2" />
<text  x="1033.98" y="351.5" >do_syscal..</text>
</g>
<g >
<title>__remove_shared_vm_struct (1,422 samples, 0.01%)</title><rect x="242.3" y="229" width="0.1" height="15.0" fill="rgb(254,129,129)" rx="2" ry="2" />
<text  x="245.31" y="239.5" ></text>
</g>
<g >
<title>__vm_munmap (1,422 samples, 0.01%)</title><rect x="242.3" y="341" width="0.1" height="15.0" fill="rgb(228,92,92)" rx="2" ry="2" />
<text  x="245.31" y="351.5" ></text>
</g>
<g >
<title>entry_SYSCALL_64_after_hwframe (126,357 samples, 0.78%)</title><rect x="236.8" y="533" width="9.1" height="15.0" fill="rgb(215,72,72)" rx="2" ry="2" />
<text  x="239.77" y="543.5" ></text>
</g>
<g >
<title>load_elf_binary (7,241 samples, 0.04%)</title><rect x="1189.5" y="405" width="0.5" height="15.0" fill="rgb(220,79,79)" rx="2" ry="2" />
<text  x="1192.48" y="415.5" ></text>
</g>
<g >
<title>down_write (48,347 samples, 0.30%)</title><rect x="242.4" y="357" width="3.5" height="15.0" fill="rgb(218,77,77)" rx="2" ry="2" />
<text  x="245.42" y="367.5" ></text>
</g>
<g >
<title>RingBuffer&lt;double&gt;::operator[] (1,373,320 samples, 8.43%)</title><rect x="500.7" y="341" width="99.5" height="15.0" fill="rgb(228,228,69)" rx="2" ry="2" />
<text  x="503.69" y="351.5" >RingBuffer&lt;d..</text>
</g>
<g >
<title>finish_task_switch.isra.0 (1,422 samples, 0.01%)</title><rect x="242.3" y="117" width="0.1" height="15.0" fill="rgb(245,115,115)" rx="2" ry="2" />
<text  x="245.31" y="127.5" ></text>
</g>
<g >
<title>gi_dde (8,461,928 samples, 51.94%)</title><rect x="245.9" y="405" width="613.0" height="15.0" fill="rgb(207,60,60)" rx="2" ry="2" />
<text  x="248.92" y="415.5" >gi_dde</text>
</g>
<g >
<title>open64 (1,097,787 samples, 6.74%)</title><rect x="1031.0" y="373" width="79.5" height="15.0" fill="rgb(222,82,82)" rx="2" ry="2" />
<text  x="1033.98" y="383.5" >open64</text>
</g>
<g >
<title>perf_event_sched_in (1,422 samples, 0.01%)</title><rect x="242.3" y="85" width="0.1" height="15.0" fill="rgb(230,94,94)" rx="2" ry="2" />
<text  x="245.31" y="95.5" ></text>
</g>
<g >
<title>__mmap_region (494,879 samples, 3.04%)</title><rect x="99.5" y="261" width="35.9" height="15.0" fill="rgb(253,128,128)" rx="2" ry="2" />
<text  x="102.51" y="271.5" >__m..</text>
</g>
<g >
<title>vsnprintf (1,090,325 samples, 6.69%)</title><rect x="1110.5" y="437" width="79.0" height="15.0" fill="rgb(239,107,107)" rx="2" ry="2" />
<text  x="1113.50" y="447.5" >vsnprintf</text>
</g>
<g >
<title>__schedule (1,422 samples, 0.01%)</title><rect x="242.3" y="133" width="0.1" height="15.0" fill="rgb(224,86,86)" rx="2" ry="2" />
<text  x="245.31" y="143.5" ></text>
</g>
<g >
<title>std::ostream&amp; std::ostream::_M_insert&lt;double&gt; (1,090,325 samples, 6.69%)</title><rect x="1110.5" y="485" width="79.0" height="15.0" fill="rgb(218,218,65)" rx="2" ry="2" />
<text  x="1113.50" y="495.5" >std::ostr..</text>
</g>
<g >
<title>do_execveat_common.isra.0 (7,241 samples, 0.04%)</title><rect x="1189.5" y="469" width="0.5" height="15.0" fill="rgb(229,92,92)" rx="2" ry="2" />
<text  x="1192.48" y="479.5" ></text>
</g>
<g >
<title>do_sys_openat2 (1,097,787 samples, 6.74%)</title><rect x="1031.0" y="293" width="79.5" height="15.0" fill="rgb(252,127,127)" rx="2" ry="2" />
<text  x="1033.98" y="303.5" >do_sys_op..</text>
</g>
<g >
<title>do_syscall_64 (1,399,940 samples, 8.59%)</title><rect x="135.4" y="453" width="101.4" height="15.0" fill="rgb(204,57,57)" rx="2" ry="2" />
<text  x="138.36" y="463.5" >do_syscall_64</text>
</g>
<g >
<title>x64_sys_call (1,097,787 samples, 6.74%)</title><rect x="1031.0" y="325" width="79.5" height="15.0" fill="rgb(246,117,117)" rx="2" ry="2" />
<text  x="1033.98" y="335.5" >x64_sys_c..</text>
</g>
<g >
<title>entry_SYSCALL_64_after_hwframe (7,241 samples, 0.04%)</title><rect x="1189.5" y="533" width="0.5" height="15.0" fill="rgb(215,72,72)" rx="2" ry="2" />
<text  x="1192.48" y="543.5" ></text>
</g>
<g >
<title>__libc_start_main (13,026,031 samples, 79.96%)</title><rect x="245.9" y="533" width="943.6" height="15.0" fill="rgb(234,99,99)" rx="2" ry="2" />
<text  x="248.92" y="543.5" >__libc_start_main</text>
</g>
<g >
<title>[ld-linux-x86-64.so.2] (494,879 samples, 3.04%)</title><rect x="99.5" y="421" width="35.9" height="15.0" fill="rgb(242,112,112)" rx="2" ry="2" />
<text  x="102.51" y="431.5" >[ld..</text>
</g>
<g >
<title>[unknown] (7,241 samples, 0.04%)</title><rect x="1189.5" y="549" width="0.5" height="15.0" fill="rgb(205,58,58)" rx="2" ry="2" />
<text  x="1192.48" y="559.5" ></text>
</g>
<g >
<title>std::_Vector_base&lt;double, std::allocator&lt;double&gt; &gt;::_Vector_impl_data::_M_swap_data (1,248,594 samples, 7.66%)</title><rect x="940.5" y="421" width="90.5" height="15.0" fill="rgb(201,201,59)" rx="2" ry="2" />
<text  x="943.53" y="431.5" >std::_Vect..</text>
</g>
<g >
<title>DDEInt&lt;&amp; (8,461,928 samples, 51.94%)</title><rect x="245.9" y="421" width="613.0" height="15.0" fill="rgb(221,81,81)" rx="2" ry="2" />
<text  x="248.92" y="431.5" >DDEInt&lt;&amp;</text>
</g>
<g >
<title>visit_groups_merge.constprop.0.isra.0 (1,422 samples, 0.01%)</title><rect x="242.3" y="53" width="0.1" height="15.0" fill="rgb(216,74,74)" rx="2" ry="2" />
<text  x="245.31" y="63.5" ></text>
</g>
<g >
<title>_start (13,026,031 samples, 79.96%)</title><rect x="245.9" y="549" width="943.6" height="15.0" fill="rgb(244,114,114)" rx="2" ry="2" />
<text  x="248.92" y="559.5" >_start</text>
</g>
<g >
<title>load_elf_interp.isra.0 (78,010 samples, 0.48%)</title><rect x="236.8" y="389" width="5.6" height="15.0" fill="rgb(250,123,123)" rx="2" ry="2" />
<text  x="239.77" y="399.5" ></text>
</g>
<g >
<title>path_openat (1,097,787 samples, 6.74%)</title><rect x="1031.0" y="261" width="79.5" height="15.0" fill="rgb(248,120,120)" rx="2" ry="2" />
<text  x="1033.98" y="271.5" >path_openat</text>
</g>
<g >
<title>_IO_file_fopen (1,097,787 samples, 6.74%)</title><rect x="1031.0" y="405" width="79.5" height="15.0" fill="rgb(239,107,107)" rx="2" ry="2" />
<text  x="1033.98" y="415.5" >_IO_file_..</text>
</g>
<g >
<title>asm_exc_page_fault (68,590 samples, 0.42%)</title><rect x="236.8" y="373" width="4.9" height="15.0" fill="rgb(222,82,82)" rx="2" ry="2" />
<text  x="239.77" y="383.5" ></text>
</g>
<g >
<title>do_syscall_64 (126,357 samples, 0.78%)</title><rect x="236.8" y="517" width="9.1" height="15.0" fill="rgb(204,57,57)" rx="2" ry="2" />
<text  x="239.77" y="527.5" ></text>
</g>
<g >
<title>RingBuffer&lt;std::array&lt;double, 2ul&gt; &gt;::operator[] (2,284,591 samples, 14.02%)</title><rect x="600.2" y="341" width="165.5" height="15.0" fill="rgb(220,220,66)" rx="2" ry="2" />
<text  x="603.17" y="351.5" >RingBuffer&lt;std::array..</text>
</g>
<g >
<title>[ld-linux-x86-64.so.2] (494,879 samples, 3.04%)</title><rect x="99.5" y="453" width="35.9" height="15.0" fill="rgb(242,112,112)" rx="2" ry="2" />
<text  x="102.51" y="463.5" >[ld..</text>
</g>
<g >
<title>main (13,026,031 samples, 79.96%)</title><rect x="245.9" y="501" width="943.6" height="15.0" fill="rgb(242,112,112)" rx="2" ry="2" />
<text  x="248.92" y="511.5" >main</text>
</g>
<g >
<title>__es_remove_extent (1,097,787 samples, 6.74%)</title><rect x="1031.0" y="149" width="79.5" height="15.0" fill="rgb(248,120,120)" rx="2" ry="2" />
<text  x="1033.98" y="159.5" >__es_remo..</text>
</g>
<g >
<title>std::vector&lt;std::array&lt;double, 2ul&gt;, std::allocator&lt;std::array&lt;double, 2ul&gt; &gt; &gt;::at (1,177,148 samples, 7.23%)</title><rect x="680.4" y="325" width="85.3" height="15.0" fill="rgb(182,182,52)" rx="2" ry="2" />
<text  x="683.39" y="335.5" >std::vecto..</text>
</g>
<g >
<title>exec_binprm (126,357 samples, 0.78%)</title><rect x="236.8" y="421" width="9.1" height="15.0" fill="rgb(243,112,112)" rx="2" ry="2" />
<text  x="239.77" y="431.5" ></text>
</g>
<g >
<title>entry_SYSCALL_64_after_hwframe (1,097,787 samples, 6.74%)</title><rect x="1031.0" y="357" width="79.5" height="15.0" fill="rgb(215,72,72)" rx="2" ry="2" />
<text  x="1033.98" y="367.5" >entry_SYS..</text>
</g>
<g >
<title>x64_sys_call (7,241 samples, 0.04%)</title><rect x="1189.5" y="501" width="0.5" height="15.0" fill="rgb(246,117,117)" rx="2" ry="2" />
<text  x="1192.48" y="511.5" ></text>
</g>
<g >
<title>[ld-linux-x86-64.so.2] (3,130,546 samples, 19.22%)</title><rect x="10.0" y="485" width="226.8" height="15.0" fill="rgb(242,112,112)" rx="2" ry="2" />
<text  x="13.00" y="495.5" >[ld-linux-x86-64.so.2]</text>
</g>
<g >
<title>[libc.so.6] (13,026,031 samples, 79.96%)</title><rect x="245.9" y="517" width="943.6" height="15.0" fill="rgb(220,79,79)" rx="2" ry="2" />
<text  x="248.92" y="527.5" >[libc.so.6]</text>
</g>
<g >
<title>[unknown] (126,357 samples, 0.78%)</title><rect x="236.8" y="549" width="9.1" height="15.0" fill="rgb(205,58,58)" rx="2" ry="2" />
<text  x="239.77" y="559.5" ></text>
</g>
<g >
<title>vms_complete_munmap_vmas (1,422 samples, 0.01%)</title><rect x="242.3" y="293" width="0.1" height="15.0" fill="rgb(212,68,68)" rx="2" ry="2" />
<text  x="245.31" y="303.5" ></text>
</g>
<g >
<title>__x64_sys_execve (7,241 samples, 0.04%)</title><rect x="1189.5" y="485" width="0.5" height="15.0" fill="rgb(246,117,117)" rx="2" ry="2" />
<text  x="1192.48" y="495.5" ></text>
</g>
<g >
<title>raw_irqentry_exit_cond_resched (1,422 samples, 0.01%)</title><rect x="242.3" y="165" width="0.1" height="15.0" fill="rgb(240,109,109)" rx="2" ry="2" />
<text  x="245.31" y="175.5" ></text>
</g>
<g >
<title>perf_event_mmap (1,399,940 samples, 8.59%)</title><rect x="135.4" y="373" width="101.4" height="15.0" fill="rgb(226,89,89)" rx="2" ry="2" />
<text  x="138.36" y="383.5" >perf_event_m..</text>
</g>
<g >
<title>vm_mmap_pgoff (494,879 samples, 3.04%)</title><rect x="99.5" y="309" width="35.9" height="15.0" fill="rgb(235,102,102)" rx="2" ry="2" />
<text  x="102.51" y="319.5" >vm_..</text>
</g>
<g >
<title>[ld-linux-x86-64.so.2] (494,879 samples, 3.04%)</title><rect x="99.5" y="437" width="35.9" height="15.0" fill="rgb(242,112,112)" rx="2" ry="2" />
<text  x="102.51" y="447.5" >[ld..</text>
</g>
<g >
<title>std::vector&lt;double, std::allocator&lt;double&gt; &gt;&amp; std::forward&lt;std::vector&lt;double, std::allocator&lt;double&gt; &gt;&amp;&gt; (1,127,397 samples, 6.92%)</title><rect x="858.9" y="437" width="81.6" height="15.0" fill="rgb(184,184,53)" rx="2" ry="2" />
<text  x="861.87" y="447.5" >std::vect..</text>
</g>
<g >
<title>do_syscall_64 (7,241 samples, 0.04%)</title><rect x="1189.5" y="517" width="0.5" height="15.0" fill="rgb(204,57,57)" rx="2" ry="2" />
<text  x="1192.48" y="527.5" ></text>
</g>
<g >
<title>[ld-linux-x86-64.so.2] (3,130,546 samples, 19.22%)</title><rect x="10.0" y="549" width="226.8" height="15.0" fill="rgb(242,112,112)" rx="2" ry="2" />
<text  x="13.00" y="559.5" >[ld-linux-x86-64.so.2]</text>
</g>
<g >
<title>__x64_sys_execve (126,357 samples, 0.78%)</title><rect x="236.8" y="485" width="9.1" height="15.0" fill="rgb(246,117,117)" rx="2" ry="2" />
<text  x="239.77" y="495.5" ></text>
</g>
<g >
<title>DoPri_5&lt;&amp; (8,461,928 samples, 51.94%)</title><rect x="245.9" y="437" width="613.0" height="15.0" fill="rgb(234,100,100)" rx="2" ry="2" />
<text  x="248.92" y="447.5" >DoPri_5&lt;&amp;</text>
</g>
<g >
<title>bprm_execve.part.0 (126,357 samples, 0.78%)</title><rect x="236.8" y="437" width="9.1" height="15.0" fill="rgb(225,86,86)" rx="2" ry="2" />
<text  x="239.77" y="447.5" ></text>
</g>
<g >
<title>std::ostreambuf_iterator&lt;char, std::char_traits&lt;char&gt; &gt; std::num_put&lt;char, std::ostreambuf_iterator&lt;char, std::char_traits&lt;char&gt; &gt; &gt;::_M_insert_float&lt;double&gt; (1,090,325 samples, 6.69%)</title><rect x="1110.5" y="469" width="79.0" height="15.0" fill="rgb(211,211,63)" rx="2" ry="2" />
<text  x="1113.50" y="479.5" >std::ostr..</text>
</g>
<g >
<title>perf-exec (7,241 samples, 0.04%)</title><rect x="1189.5" y="565" width="0.5" height="15.0" fill="rgb(229,93,93)" rx="2" ry="2" />
<text  x="1192.48" y="575.5" ></text>
</g>
<g >
<title>do_truncate (1,097,787 samples, 6.74%)</title><rect x="1031.0" y="229" width="79.5" height="15.0" fill="rgb(212,68,68)" rx="2" ry="2" />
<text  x="1033.98" y="239.5" >do_truncate</text>
</g>
<g >
<title>DDEInt&lt;&amp; (10,837,919 samples, 66.53%)</title><rect x="245.9" y="485" width="785.1" height="15.0" fill="rgb(221,81,81)" rx="2" ry="2" />
<text  x="248.92" y="495.5" >DDEInt&lt;&amp;</text>
</g>
<g >
<title>begin_new_exec (7,241 samples, 0.04%)</title><rect x="1189.5" y="389" width="0.5" height="15.0" fill="rgb(244,114,114)" rx="2" ry="2" />
<text  x="1192.48" y="399.5" ></text>
</g>
<g >
<title>std::_Vector_base&lt;double, std::allocator&lt;double&gt; &gt;::_Vector_impl_data::_M_copy_data (1,248,594 samples, 7.66%)</title><rect x="940.5" y="405" width="90.5" height="15.0" fill="rgb(201,201,59)" rx="2" ry="2" />
<text  x="943.53" y="415.5" >std::_Vect..</text>
</g>
<g >
<title>bprm_execve (7,241 samples, 0.04%)</title><rect x="1189.5" y="453" width="0.5" height="15.0" fill="rgb(214,71,71)" rx="2" ry="2" />
<text  x="1192.48" y="463.5" ></text>
</g>
<g >
<title>[libstdc++.so.6.0.33] (1,090,325 samples, 6.69%)</title><rect x="1110.5" y="453" width="79.0" height="15.0" fill="rgb(212,67,67)" rx="2" ry="2" />
<text  x="1113.50" y="463.5" >[libstdc+..</text>
</g>
<g >
<title>expand_stack_locked (48,347 samples, 0.30%)</title><rect x="242.4" y="373" width="3.5" height="15.0" fill="rgb(203,55,55)" rx="2" ry="2" />
<text  x="245.42" y="383.5" ></text>
</g>
<g >
<title>do_syscall_64 (494,879 samples, 3.04%)</title><rect x="99.5" y="373" width="35.9" height="15.0" fill="rgb(204,57,57)" rx="2" ry="2" />
<text  x="102.51" y="383.5" >do_..</text>
</g>
<g >
<title>perf_event_comm_event.constprop.0 (6,009 samples, 0.04%)</title><rect x="1189.5" y="357" width="0.4" height="15.0" fill="rgb(214,70,70)" rx="2" ry="2" />
<text  x="1192.48" y="367.5" ></text>
</g>
<g >
<title>gi_model (16,282,934 samples, 99.96%)</title><rect x="10.0" y="565" width="1179.5" height="15.0" fill="rgb(237,104,104)" rx="2" ry="2" />
<text  x="13.00" y="575.5" >gi_model</text>
</g>
<g >
<title>[libc.so.6] (1,090,325 samples, 6.69%)</title><rect x="1110.5" y="405" width="79.0" height="15.0" fill="rgb(220,79,79)" rx="2" ry="2" />
<text  x="1113.50" y="415.5" >[libc.so.6]</text>
</g>
<g >
<title>setup_arg_pages (48,347 samples, 0.30%)</title><rect x="242.4" y="389" width="3.5" height="15.0" fill="rgb(219,78,78)" rx="2" ry="2" />
<text  x="245.42" y="399.5" ></text>
</g>
<g >
<title>ctx_sched_in (1,422 samples, 0.01%)</title><rect x="242.3" y="69" width="0.1" height="15.0" fill="rgb(228,90,90)" rx="2" ry="2" />
<text  x="245.31" y="79.5" ></text>
</g>
<g >
<title>__perf_addr_filters_adjust (494,879 samples, 3.04%)</title><rect x="99.5" y="229" width="35.9" height="15.0" fill="rgb(246,117,117)" rx="2" ry="2" />
<text  x="102.51" y="239.5" >__p..</text>
</g>
<g >
<title>std::basic_ofstream&lt;char, std::char_traits&lt;char&gt; &gt;::basic_ofstream (1,097,787 samples, 6.74%)</title><rect x="1031.0" y="469" width="79.5" height="15.0" fill="rgb(226,226,68)" rx="2" ry="2" />
<text  x="1033.98" y="479.5" >std::basi..</text>
</g>
<g >
<title>security_mmap_file (7,998 samples, 0.05%)</title><rect x="241.7" y="341" width="0.6" height="15.0" fill="rgb(254,128,128)" rx="2" ry="2" />
<text  x="244.73" y="351.5" ></text>
</g>
<g >
<title>mmap_region (494,879 samples, 3.04%)</title><rect x="99.5" y="277" width="35.9" height="15.0" fill="rgb(228,92,92)" rx="2" ry="2" />
<text  x="102.51" y="287.5" >mma..</text>
</g>
<g >
<title>merge_sched_in (1,422 samples, 0.01%)</title><rect x="242.3" y="37" width="0.1" height="15.0" fill="rgb(231,96,96)" rx="2" ry="2" />
<text  x="245.31" y="47.5" ></text>
</g>
<g >
<title>preempt_schedule_irq (1,422 samples, 0.01%)</title><rect x="242.3" y="149" width="0.1" height="15.0" fill="rgb(239,107,107)" rx="2" ry="2" />
<text  x="245.31" y="159.5" ></text>
</g>
<g >
<title>History&lt;double, double&gt;::interpolate (7,175,068 samples, 44.05%)</title><rect x="245.9" y="357" width="519.8" height="15.0" fill="rgb(187,187,54)" rx="2" ry="2" />
<text  x="248.92" y="367.5" >History&lt;double, double&gt;::interpolate</text>
</g>
<g >
<title>[ld-linux-x86-64.so.2] (3,130,546 samples, 19.22%)</title><rect x="10.0" y="501" width="226.8" height="15.0" fill="rgb(242,112,112)" rx="2" ry="2" />
<text  x="13.00" y="511.5" >[ld-linux-x86-64.so.2]</text>
</g>
<g >
<title>free_pgtables (1,422 samples, 0.01%)</title><rect x="242.3" y="261" width="0.1" height="15.0" fill="rgb(204,55,55)" rx="2" ry="2" />
<text  x="245.31" y="271.5" ></text>
</g>
<g >
<title>x64_sys_call (494,879 samples, 3.04%)</title><rect x="99.5" y="357" width="35.9" height="15.0" fill="rgb(246,117,117)" rx="2" ry="2" />
<text  x="102.51" y="367.5" >x64..</text>
</g>
<g >
<title>RingBuffer&lt;std::array&lt;double, 2ul&gt; &gt;::operator[] (1,286,860 samples, 7.90%)</title><rect x="765.7" y="357" width="93.2" height="15.0" fill="rgb(220,220,66)" rx="2" ry="2" />
<text  x="768.65" y="367.5" >RingBuffer&lt;..</text>
</g>
<g >
<title>unmap_region (1,422 samples, 0.01%)</title><rect x="242.3" y="277" width="0.1" height="15.0" fill="rgb(215,72,72)" rx="2" ry="2" />
<text  x="245.31" y="287.5" ></text>
</g>
<g >
<title>_dl_catch_exception (494,879 samples, 3.04%)</title><rect x="99.5" y="469" width="35.9" height="15.0" fill="rgb(253,127,127)" rx="2" ry="2" />
<text  x="102.51" y="479.5" >_dl..</text>
</g>
<g >
<title>entry_SYSCALL_64_after_hwframe (494,879 samples, 3.04%)</title><rect x="99.5" y="389" width="35.9" height="15.0" fill="rgb(215,72,72)" rx="2" ry="2" />
<text  x="102.51" y="399.5" >ent..</text>
</g>
<g >
<title>fopen (1,097,787 samples, 6.74%)</title><rect x="1031.0" y="421" width="79.5" height="15.0" fill="rgb(250,123,123)" rx="2" ry="2" />
<text  x="1033.98" y="431.5" >fopen</text>
</g>
</g>
</svg>
